<svg width="598" height="23" viewBox="0 0 598 23" fill="none" xmlns="http://www.w3.org/2000/svg">
<path d="M2.5 2.5C9.05078 2.60614 377.663 3.62868 384.165 3.77408C387.9 3.8576 405.372 3.94908 409.091 4.0619C413.979 4.21019 487.037 4.43845 491.915 4.89742C495.936 5.2757 497.142 8.57868 492.619 9.17444C489.689 9.56037 421.35 9.82089 418.127 10.0714C409.227 10.7632 373.451 10.4667 364.382 10.994C360.73 11.2063 357.034 11.3851 353.427 11.6311C352.022 11.7268 101.816 10.5001 102.058 14.0167C102.298 17.5 353.218 19.1968 355.167 19.2319C363.72 19.3857 386.263 19.4873 392.82 19.5365C410.093 19.6659 578.533 19.6665 595.5 20.5" stroke="#007BFF" stroke-width="5" stroke-linecap="round"/>
</svg>
