<svg width="1440" height="4766" viewBox="0 0 1440 4766" fill="none" xmlns="http://www.w3.org/2000/svg">
<rect width="1440" height="4766" fill="white"/>
<g clip-path="url(#clip0_1966_1427)">
<rect x="4" width="1440" height="4323" fill="white"/>
<rect x="4" width="1440" height="817" fill="white"/>
<g clip-path="url(#clip1_1966_1427)">
<path d="M0 723.38H12V725.905H0V723.38ZM14 723.38H26V725.905H14V723.38ZM28 723.38H40V725.905H28V723.38ZM42 723.38H54V725.905H42V723.38ZM56 723.38H68V725.905H56V723.38ZM70 723.38H82V725.905H70V723.38ZM84 723.38H96V725.905H84V723.38ZM98 723.38H110V725.905H98V723.38ZM112 723.38H124V725.905H112V723.38ZM126 723.38H138V725.905H126V723.38ZM140 723.38H152V725.905H140V723.38ZM154 723.38H166V725.905H154V723.38ZM168 723.38H180V725.905H168V723.38ZM182 723.38H194V725.905H182V723.38ZM196 723.38H208V725.905H196V723.38ZM210 723.38H222V725.905H210V723.38ZM224 723.38H236V725.905H224V723.38ZM238 723.38H250V725.905H238V723.38ZM252 723.38H264V725.905H252V723.38ZM266 723.38H278V725.905H266V723.38ZM280 723.38H292V725.905H280V723.38ZM294 723.38H306V725.905H294V723.38ZM308 723.38H320V725.905H308V723.38ZM322 723.38H334V725.905H322V723.38ZM336 723.38H348V725.905H336V723.38ZM350 723.38H362V725.905H350V723.38ZM364 723.38H376V725.905H364V723.38ZM378 723.38H384.625C386.641 723.38 388.531 723.978 390.302 725.175L389.354 727.404C387.88 726.404 386.307 725.905 384.625 725.905H378V723.38ZM392.125 726.707C395.125 729.738 396.625 733.683 396.625 738.53V741.311H394.625V738.53C394.625 734.492 393.375 731.205 390.875 728.673L392.125 726.707ZM396.625 743.836V758.986H394.625V743.836H396.625ZM396.625 761.511V776.661H394.625V761.511H396.625ZM396.625 779.186V794.336H394.625V779.186H396.625ZM396.625 796.861V801.951C396.625 805.166 397.474 807.967 399.172 810.361L397.677 812.051C395.646 809.177 394.625 805.81 394.625 801.951V796.861H396.625ZM400.5 811.932C402.302 813.694 404.344 814.576 406.625 814.576H411.427V817.101H406.625C403.885 817.101 401.438 816.042 399.276 813.925L400.5 811.932ZM413.427 814.576H425.427V817.101H413.427V814.576ZM427.427 814.576H439.427V817.101H427.427V814.576ZM441.427 814.576H453.427V817.101H441.427V814.576ZM455.427 814.576H467.427V817.101H455.427V814.576ZM469.427 814.576H481.427V817.101H469.427V814.576ZM483.427 814.576H495.427V817.101H483.427V814.576ZM497.427 814.576H499.99C503.672 814.576 506.708 816.338 509.109 819.869L507.589 821.513C505.589 818.573 503.057 817.101 499.99 817.101H497.427V814.576ZM510.375 822.124C511.453 824.465 511.99 826.997 511.99 829.726V837.636H509.99V829.726C509.99 827.45 509.542 825.34 508.646 823.393L510.375 822.124ZM511.99 840.161V855.311H509.99V840.161H511.99ZM511.99 857.836V872.986H509.99V857.836H511.99ZM511.99 875.511V890.661H509.99V875.511H511.99ZM511.99 893.186V908.336H509.99V893.186H511.99ZM511.99 910.861V926.011H509.99V910.861H511.99ZM511.99 928.536V943.686H509.99V928.536H511.99ZM511.99 946.211V961.361H509.99V946.211H511.99ZM511.99 963.886V979.036H509.99V963.886H511.99ZM511.99 981.561V996.711H509.99V981.561H511.99ZM511.99 999.236V1014.39H509.99V999.236H511.99ZM511.99 1016.91V1032.06H509.99V1016.91H511.99ZM511.99 1034.59V1049.74H509.99V1034.59H511.99ZM511.99 1052.26V1067.41H509.99V1052.26H511.99ZM511.99 1069.94V1085.09H509.99V1069.94H511.99ZM511.99 1087.61V1102.76H509.99V1087.61H511.99ZM511.99 1105.29V1109.74H509.99V1105.29H511.99Z" fill="#007BFF" fill-opacity="0.2"/>
<path d="M513.99 1104.69L510.99 1109.74L507.99 1104.69" stroke="#007BFF" stroke-opacity="0.2" stroke-width="0.324285" stroke-linecap="round" stroke-linejoin="round"/>
<path d="M392.865 723.379H404.865V725.904H392.865V723.379ZM406.865 723.379H418.865V725.904H406.865V723.379ZM420.865 723.379H432.865V725.904H420.865V723.379ZM434.865 723.379H446.865V725.904H434.865V723.379ZM448.865 723.379H460.865V725.904H448.865V723.379ZM462.865 723.379H474.865V725.904H462.865V723.379ZM476.865 723.379H488.865V725.904H476.865V723.379ZM490.865 723.379H502.865V725.904H490.865V723.379ZM504.865 723.379H516.865V725.904H504.865V723.379ZM518.865 723.379H530.865V725.904H518.865V723.379ZM532.865 723.379H544.865V725.904H532.865V723.379ZM546.865 723.379H558.865V725.904H546.865V723.379ZM560.865 723.379H572.219C572.423 723.379 572.626 723.373 572.829 723.36L572.949 725.878C572.704 725.898 572.464 725.904 572.219 725.904H560.865V723.379ZM574.646 723.005C578.579 721.768 581.016 718.665 581.949 713.687L583.896 714.266C582.771 720.243 579.85 723.971 575.131 725.457L574.646 723.005ZM582.209 711.379C582.219 711.175 582.219 710.965 582.219 710.754V696.269H584.219V710.754C584.219 711.004 584.214 711.254 584.209 711.504L582.209 711.379ZM582.219 693.744V678.594H584.219V693.744H582.219ZM582.219 676.069V660.919H584.219V676.069H582.219ZM582.219 658.394V643.244H584.219V658.394H582.219ZM582.219 640.719V625.569H584.219V640.719H582.219ZM582.219 623.044V607.894H584.219V623.044H582.219ZM582.219 605.369V590.219H584.219V605.369H582.219ZM582.219 587.694V572.544H584.219V587.694H582.219ZM582.219 570.019V554.869H584.219V570.019H582.219ZM582.219 552.344V537.194H584.219V552.344H582.219ZM582.219 534.669V519.519H584.219V534.669H582.219ZM582.219 516.994V501.844H584.219V516.994H582.219ZM582.219 499.319V484.169H584.219V499.319H582.219ZM582.219 481.644V466.494H584.219V481.644H582.219ZM582.219 463.969V448.819H584.219V463.969H582.219ZM582.219 446.294V431.144H584.219V446.294H582.219ZM582.219 428.619V413.469H584.219V428.619H582.219ZM582.219 410.944V395.794H584.219V410.944H582.219ZM582.219 393.269V378.119H584.219V393.269H582.219ZM582.219 375.594V360.444H584.219V375.594H582.219ZM582.219 357.919V342.769H584.219V357.919H582.219ZM582.219 340.244V325.094H584.219V340.244H582.219ZM582.219 322.569V307.419H584.219V322.569H582.219ZM582.219 304.894V289.744H584.219V304.894H582.219ZM582.219 287.219V272.069H584.219V287.219H582.219ZM582.219 269.544V254.394H584.219V269.544H582.219ZM582.219 251.869V236.719H584.219V251.869H582.219ZM582.219 234.194V219.044H584.219V234.194H582.219ZM582.219 216.519V201.369H584.219V216.519H582.219ZM582.219 198.844V183.694H584.219V198.844H582.219ZM582.219 181.169V166.019H584.219V181.169H582.219ZM582.219 163.494V148.344H584.219V163.494H582.219ZM582.219 145.819V130.669H584.219V145.819H582.219ZM582.219 128.144V112.994H584.219V128.144H582.219ZM582.219 110.469V95.3186H584.219V110.469H582.219ZM582.219 92.7936V77.6436H584.219V92.7936H582.219ZM582.219 75.1186V59.9686H584.219V75.1186H582.219ZM582.219 57.4436V42.2936H584.219V57.4436H582.219ZM582.219 39.7686V24.6186H584.219V39.7686H582.219ZM582.219 22.0936V17.7998H584.219V22.0936H582.219Z" fill="#007BFF" fill-opacity="0.2"/>
<path d="M583.219 491.093H595.219V493.618H583.219V491.093ZM597.219 491.093H609.219V493.618H597.219V491.093ZM611.219 491.093H623.219V493.618H611.219V491.093ZM625.219 491.093H637.219V493.618H625.219V491.093ZM639.219 491.093H651.219V493.618H639.219V491.093ZM653.219 491.093H665.219V493.618H653.219V491.093ZM667.219 491.093H679.219V493.618H667.219V491.093ZM681.219 491.093H693.219V493.618H681.219V491.093ZM695.219 491.093H707.219V493.618H695.219V491.093ZM709.219 491.093H721.219V493.618H709.219V491.093ZM723.219 491.093H735.219V493.618H723.219V491.093ZM737.219 491.093H749.219V493.618H737.219V491.093ZM751.219 491.093H763.219V493.618H751.219V491.093ZM765.219 491.093H777.219V493.618H765.219V491.093ZM779.219 491.093H784.182C786.859 491.093 789.26 492.105 791.396 494.131L790.193 496.149C788.417 494.459 786.411 493.618 784.182 493.618H779.219V491.093ZM793.01 495.978C795.125 498.878 796.182 502.297 796.182 506.243V511.128H794.182V506.243C794.182 502.955 793.302 500.108 791.542 497.695L793.01 495.978ZM796.182 513.653V528.803H794.182V513.653H796.182ZM796.182 531.328V546.478H794.182V531.328H796.182ZM796.182 549.003V564.153H794.182V549.003H796.182ZM796.182 566.678V581.828H794.182V566.678H796.182ZM796.182 584.353V599.503H794.182V584.353H796.182ZM796.182 602.028V617.178H794.182V602.028H796.182ZM796.182 619.703V634.853H794.182V619.703H796.182ZM796.182 637.378V652.528H794.182V637.378H796.182ZM796.182 655.053V670.203H794.182V655.053H796.182ZM796.182 672.728V687.878H794.182V672.728H796.182ZM796.182 690.403V705.553H794.182V690.403H796.182ZM796.182 708.078V723.228H794.182V708.078H796.182ZM796.182 725.753V740.903H794.182V725.753H796.182ZM796.182 743.428V758.578H794.182V743.428H796.182ZM796.182 761.103V776.253H794.182V761.103H796.182ZM796.182 778.778V793.245C796.182 793.462 796.188 793.672 796.198 793.889L794.198 794.014C794.188 793.757 794.182 793.501 794.182 793.245V778.778H796.182ZM796.458 796.19C797.401 801.168 799.839 804.272 803.771 805.501L803.292 807.947C798.568 806.474 795.641 802.746 794.51 796.776L796.458 796.19ZM805.589 805.85C805.786 805.863 805.984 805.87 806.182 805.87H817.552V808.395H806.182C805.948 808.395 805.708 808.388 805.474 808.368L805.589 805.85ZM819.552 805.87H831.552V808.395H819.552V805.87ZM833.552 805.87H845.552V808.395H833.552V805.87ZM847.552 805.87H859.552V808.395H847.552V805.87ZM861.552 805.87H873.552V808.395H861.552V805.87ZM875.552 805.87H882.115C883.818 805.87 885.411 805.357 886.896 804.337L887.854 806.553C886.068 807.783 884.156 808.395 882.115 808.395H875.552V805.87ZM888.411 803.055C890.88 800.524 892.115 797.256 892.115 793.245V790.378H894.115V793.245C894.115 798.058 892.635 801.977 889.672 805.015L888.411 803.055ZM892.115 787.853V772.703H894.115V787.853H892.115ZM892.115 770.178V755.028H894.115V770.178H892.115ZM892.115 752.503V737.353H894.115V752.503H892.115ZM892.115 734.828V719.678H894.115V734.828H892.115ZM892.115 717.153V702.003H894.115V717.153H892.115ZM892.115 699.478V684.328H894.115V699.478H892.115ZM892.115 681.803V666.653H894.115V681.803H892.115ZM892.115 664.128V648.978H894.115V664.128H892.115ZM892.115 646.453V631.303H894.115V646.453H892.115ZM892.115 628.778V613.628H894.115V628.778H892.115ZM892.115 611.103V595.953H894.115V611.103H892.115ZM892.115 593.428V578.278H894.115V593.428H892.115ZM892.115 575.753V560.603H894.115V575.753H892.115ZM892.115 558.078V542.928H894.115V558.078H892.115ZM892.115 540.403V535.53C892.115 531.585 893.172 528.159 895.292 525.259L896.766 526.975C895 529.389 894.115 532.242 894.115 535.53V540.403H892.115ZM896.911 523.411C899.042 521.393 901.443 520.38 904.115 520.38H909.083V522.905H904.115C901.891 522.905 899.885 523.747 898.115 525.43L896.911 523.411ZM911.083 520.38H923.083V522.905H911.083V520.38ZM925.083 520.38H937.083V522.905H925.083V520.38ZM939.083 520.38H951.083V522.905H939.083V520.38ZM953.083 520.38H965.083V522.905H953.083V520.38ZM967.083 520.38H979.083V522.905H967.083V520.38ZM981.083 520.38H993.083V522.905H981.083V520.38ZM995.083 520.38H1007.08V522.905H995.083V520.38ZM1009.08 520.38H1021.08V522.905H1009.08V520.38ZM1023.08 520.38H1035.08V522.905H1023.08V520.38ZM1037.08 520.38H1049.08V522.905H1037.08V520.38ZM1051.08 520.38H1063.08V522.905H1051.08V520.38ZM1065.08 520.38H1077.08V522.905H1065.08V520.38ZM1079.08 520.38H1091.08V522.905H1079.08V520.38ZM1093.08 520.38H1105.08V522.905H1093.08V520.38ZM1107.08 520.38H1119.08V522.905H1107.08V520.38ZM1121.08 520.38H1133.08V522.905H1121.08V520.38ZM1135.08 520.38H1147.08V522.905H1135.08V520.38ZM1149.08 520.38H1161.08V522.905H1149.08V520.38ZM1163.08 520.38H1175.08V522.905H1163.08V520.38ZM1177.08 520.38H1189.08V522.905H1177.08V520.38ZM1191.08 520.38H1203.08V522.905H1191.08V520.38ZM1205.08 520.38H1217.08V522.905H1205.08V520.38ZM1219.08 520.38H1231.08V522.905H1219.08V520.38ZM1233.08 520.38H1245.08V522.905H1233.08V520.38ZM1247.08 520.38H1259.08V522.905H1247.08V520.38ZM1261.08 520.38H1273.08V522.905H1261.08V520.38ZM1275.08 520.38H1287.08V522.905H1275.08V520.38ZM1289.08 520.38H1301.08V522.905H1289.08V520.38ZM1303.08 520.38H1315.08V522.905H1303.08V520.38ZM1317.08 520.38H1329.08V522.905H1317.08V520.38ZM1331.08 520.38H1343.08V522.905H1331.08V520.38ZM1345.08 520.38H1357.08V522.905H1345.08V520.38ZM1359.08 520.38H1371.08V522.905H1359.08V520.38ZM1373.08 520.38H1385.08V522.905H1373.08V520.38ZM1387.08 520.38H1399.08V522.905H1387.08V520.38ZM1401.08 520.38H1413.08V522.905H1401.08V520.38ZM1415.08 520.38H1427.08V522.905H1415.08V520.38ZM1429.08 520.38H1440V522.905H1429.08V520.38Z" fill="#007BFF" fill-opacity="0.2"/>
<mask id="mask0_1966_1427" style="mask-type:luminance" maskUnits="userSpaceOnUse" x="295" y="706" width="25" height="17">
<path d="M295.115 706.138H319.115V722.15H295.115V706.138Z" fill="white"/>
</mask>
<g mask="url(#mask0_1966_1427)">
<path d="M313.923 713.575L311.021 707.605C311.021 707.605 310.214 706.145 309.225 706.145H301.24C301.24 706.145 299.777 706.152 299.199 707.638L296.266 713.418C295.771 713.865 295.178 714.555 295.178 715.344V718.599C295.178 719.921 295.912 721.019 296.891 721.302C296.923 719.243 298.251 717.586 299.886 717.586C301.542 717.586 302.886 719.283 302.886 721.374H309.787C309.787 719.283 311.131 717.586 312.787 717.586C314.443 717.586 315.787 719.283 315.787 721.374H316.61C317.824 721.374 318.808 720.131 318.808 718.599C318.808 718.599 318.548 713.575 313.923 713.575ZM303.542 712.944H298.339L300.777 707.96H303.542V712.944ZM306.402 712.944H304.787V707.96H309.423L311.881 712.944H306.402Z" fill="#007BFF" fill-opacity="0.2"/>
</g>
<mask id="mask1_1966_1427" style="mask-type:luminance" maskUnits="userSpaceOnUse" x="297" y="717" width="6" height="9">
<path d="M297.334 717.1H302.667V725.076H297.334V717.1Z" fill="white"/>
</mask>
<g mask="url(#mask1_1966_1427)">
<path d="M299.939 718.132C298.522 718.132 297.371 719.579 297.371 721.374C297.371 723.163 298.522 724.609 299.939 724.609C301.355 724.609 302.507 723.163 302.507 721.374C302.507 719.579 301.355 718.132 299.939 718.132ZM299.939 722.854C299.293 722.854 298.767 722.189 298.767 721.367C298.767 720.552 299.293 719.888 299.939 719.888C300.585 719.888 301.111 720.552 301.111 721.367C301.111 722.189 300.585 722.854 299.939 722.854Z" fill="#007BFF" fill-opacity="0.2"/>
</g>
<mask id="mask2_1966_1427" style="mask-type:luminance" maskUnits="userSpaceOnUse" x="309" y="717" width="7" height="9">
<path d="M309.334 717.1H316.001V725.076H309.334V717.1Z" fill="white"/>
</mask>
<g mask="url(#mask2_1966_1427)">
<path d="M312.808 718.132C311.391 718.132 310.24 719.579 310.24 721.374C310.24 723.163 311.391 724.609 312.808 724.609C314.225 724.609 315.376 723.163 315.376 721.374C315.376 719.579 314.225 718.132 312.808 718.132ZM312.808 722.854C312.162 722.854 311.636 722.189 311.636 721.367C311.636 720.552 312.162 719.888 312.808 719.888C313.454 719.888 313.98 720.552 313.98 721.367C313.98 722.189 313.454 722.854 312.808 722.854Z" fill="#007BFF" fill-opacity="0.2"/>
</g>
<mask id="mask3_1966_1427" style="mask-type:luminance" maskUnits="userSpaceOnUse" x="627" y="476" width="11" height="11">
<path d="M627.998 476.384H637.701V486.484H627.998V476.384Z" fill="white"/>
</mask>
<g mask="url(#mask3_1966_1427)">
<path d="M633.706 484.859C634.029 484.721 634.367 484.649 634.701 484.649C635.773 484.649 636.753 485.353 637.31 486.457C637.643 486.438 637.732 486.194 637.195 485.313C636.331 483.899 635.133 483.623 634.289 483.636C634.237 483.459 634.185 483.268 634.128 483.071C633.612 481.263 632.451 480.408 631.768 480.04L631.107 477.62C631.07 477.475 630.982 477.357 630.872 477.291C630.763 477.225 630.638 477.219 630.523 477.278L629.289 477.896C629.414 477.962 629.529 478.067 629.612 478.205C629.727 478.396 629.784 478.626 629.773 478.863L630.419 478.54L632.419 485.918C632.768 485.438 633.206 485.076 633.706 484.859Z" fill="#007BFF" fill-opacity="0.2"/>
</g>
<mask id="mask4_1966_1427" style="mask-type:luminance" maskUnits="userSpaceOnUse" x="615" y="473" width="8" height="11">
<path d="M615.703 473.017H622.667V483.117H615.703V473.017Z" fill="white"/>
</mask>
<g mask="url(#mask4_1966_1427)">
<path d="M621.797 473.714H616.177C615.917 473.714 615.703 473.983 615.703 474.319V481.308C615.703 481.637 615.917 481.907 616.177 481.907H621.797C622.057 481.907 622.271 481.637 622.271 481.308V474.319C622.271 473.983 622.057 473.714 621.797 473.714Z" fill="#007BFF" fill-opacity="0.2"/>
</g>
<mask id="mask5_1966_1427" style="mask-type:luminance" maskUnits="userSpaceOnUse" x="618" y="484" width="8" height="9">
<path d="M618.666 484.8H625.333V492.066H618.666V484.8Z" fill="white"/>
</mask>
<g mask="url(#mask5_1966_1427)">
<path d="M624.04 487.483C623.572 485.734 622.067 484.8 620.681 485.392C619.29 485.984 618.551 487.884 619.02 489.633C619.488 491.382 620.994 492.322 622.379 491.731C623.764 491.132 624.509 489.232 624.04 487.483ZM621.869 489.811C621.317 490.047 620.723 489.673 620.54 488.982C620.353 488.292 620.645 487.542 621.192 487.305C621.744 487.075 622.337 487.443 622.52 488.134C622.707 488.824 622.415 489.574 621.869 489.811Z" fill="#007BFF" fill-opacity="0.2"/>
</g>
<path d="M631.975 478.139C631.975 479.086 632.579 479.855 633.329 479.855C634.079 479.855 634.079 476.429 633.329 476.429C632.579 476.429 631.975 477.199 631.975 478.139Z" fill="#007BFF" fill-opacity="0.2"/>
<mask id="mask6_1966_1427" style="mask-type:luminance" maskUnits="userSpaceOnUse" x="632" y="484" width="6" height="9">
<path d="M632.002 484.8H637.705V492.066H632.002V484.8Z" fill="white"/>
</mask>
<g mask="url(#mask6_1966_1427)">
<path d="M632.195 489.633C632.669 491.382 634.169 492.322 635.56 491.731C636.945 491.132 637.685 489.232 637.216 487.483C636.747 485.734 635.242 484.8 633.856 485.392C632.471 485.984 631.726 487.884 632.195 489.633ZM635.044 489.811C634.497 490.047 633.903 489.673 633.716 488.982C633.528 488.292 633.825 487.542 634.372 487.305C634.919 487.075 635.513 487.443 635.7 488.134C635.882 488.824 635.591 489.574 635.044 489.811Z" fill="#007BFF" fill-opacity="0.2"/>
</g>
<path d="M625.51 484.188V482.959C625.51 482.709 625.348 482.505 625.156 482.505H617.906C617.708 482.505 617.551 482.709 617.551 482.959V484.188C617.551 484.438 617.708 484.642 617.906 484.642H617.947C617.557 485.839 616.963 487.91 616.963 489.317C616.963 489.317 617.567 489.317 618.494 489.317C618.364 488.476 618.452 487.614 618.755 486.832C619.124 485.892 619.755 485.195 620.536 484.859C620.859 484.721 621.192 484.649 621.531 484.649C622.859 484.649 624.036 485.721 624.463 487.305C624.64 487.976 624.666 488.666 624.562 489.317C624.775 489.317 624.984 489.317 625.187 489.317C625.723 489.317 626.223 489.317 626.656 489.317H631.671C631.598 488.87 631.588 488.417 631.645 487.969H625.973C625.484 486.72 625.312 485.451 625.26 484.616C625.406 484.563 625.51 484.392 625.51 484.188Z" fill="#007BFF" fill-opacity="0.2"/>
<path d="M628.88 479.816C628.323 479.717 627.833 479.559 627.391 479.362H625.438C625.438 478.902 625.469 478.435 625.516 477.968C624.339 476.653 623.995 475.134 623.974 475.035C623.859 474.496 624.109 473.944 624.531 473.799C624.599 473.779 624.672 473.766 624.74 473.766C625.099 473.766 625.412 474.069 625.505 474.503C625.516 474.542 625.609 474.943 625.875 475.456C625.88 475.41 625.885 475.364 625.896 475.325C626.115 474.358 625.823 473.194 625.167 472.99C624.505 472.78 623.552 473.234 623.162 474.66C622.641 476.627 622.526 477.902 622.724 480.072C622.948 481.506 623.677 481.762 624.339 481.788C624.375 481.795 624.417 481.795 624.453 481.795H627.047L626.219 486.029C626.094 486.687 626.406 487.345 626.927 487.502C627.005 487.529 627.078 487.542 627.156 487.542C627.589 487.542 627.984 487.167 628.094 486.615L629.214 480.868C629.281 480.506 629.219 480.125 629.037 479.829C629.031 479.822 629.031 479.822 629.031 479.816C629.016 479.822 629 479.822 628.984 479.822C628.948 479.822 628.912 479.816 628.88 479.816Z" fill="#007BFF" fill-opacity="0.2"/>
<path d="M629.594 478.921C629.641 478.494 629.402 478.099 629.063 478.047C626.048 477.54 625.365 474.693 625.334 474.562C625.245 474.147 624.907 473.904 624.579 474.016C624.251 474.128 624.058 474.555 624.147 474.976C624.178 475.134 625.042 478.948 628.902 479.592C628.928 479.592 628.959 479.599 628.985 479.599C629.287 479.599 629.553 479.309 629.594 478.921Z" fill="#007BFF" fill-opacity="0.2"/>
<path d="M627.682 471.491L628.296 471.971C628.359 471.813 628.411 471.649 628.442 471.465C628.51 471.11 628.505 470.755 628.437 470.426H627.682V471.491Z" fill="#007BFF" fill-opacity="0.2"/>
<path d="M626.36 473.109C626.605 473.175 626.844 473.181 627.074 473.122L625.115 471.682C625.303 472.372 625.756 472.931 626.36 473.109Z" fill="#007BFF" fill-opacity="0.2"/>
<mask id="mask7_1966_1427" style="mask-type:luminance" maskUnits="userSpaceOnUse" x="624" y="468" width="7" height="7">
<path d="M624 468.079H630.667V474.7H624V468.079Z" fill="white"/>
</mask>
<g mask="url(#mask7_1966_1427)">
<path d="M626.719 468.105C625.073 468.105 624.75 468.933 624.75 471.169L628.302 473.786L628.589 472.445L627.51 471.616V470.209H629.401C629.401 470.209 628.37 468.105 626.719 468.105Z" fill="#007BFF" fill-opacity="0.2"/>
</g>
<mask id="mask8_1966_1427" style="mask-type:luminance" maskUnits="userSpaceOnUse" x="836" y="772" width="20" height="34">
<path d="M836.641 772.834H855.641V805.659H836.641V772.834Z" fill="white"/>
</mask>
<g mask="url(#mask8_1966_1427)">
<path d="M844.5 799.366C844.135 798.018 843.464 796.835 842.573 795.96L840.375 793.81C838.125 791.601 836.755 788.254 836.641 784.657C836.641 778.128 840.828 772.841 846 772.841C851.167 772.841 855.359 778.128 855.359 784.657C855.24 788.254 853.87 791.601 851.62 793.81L849.422 795.96C848.531 796.835 847.859 798.018 847.495 799.366L847.24 800.32C847.057 800.984 846.557 801.438 846 801.438C845.438 801.438 844.938 800.984 844.76 800.32L844.5 799.366ZM846 805.455C843.932 805.455 842.255 805.133 842.255 804.745C842.255 804.351 843.932 804.035 846 804.035C848.068 804.035 849.74 804.351 849.74 804.745C849.74 805.133 848.068 805.455 846 805.455ZM846 793.876C850.135 793.876 853.484 789.641 853.484 784.42C853.484 779.199 850.135 774.965 846 774.965C841.865 774.965 838.51 779.199 838.51 784.42C838.51 789.641 841.865 793.876 846 793.876ZM841.13 787.958L841.146 781.586L845.536 784.789L845.542 791.16L841.13 787.958ZM846.49 784.789L850.849 781.586L850.865 787.958L846.49 791.167V784.789ZM841.62 780.534L845.984 777.332L850.375 780.534L846.01 783.736L841.62 780.534Z" fill="#007BFF" fill-opacity="0.2"/>
</g>
<path d="M444.422 724.642V709.492H446.422V724.642H444.422ZM444.422 706.967V691.817H446.422V706.967H444.422ZM444.422 689.292V674.142H446.422V689.292H444.422ZM444.422 671.617V656.467H446.422V671.617H444.422ZM444.422 653.942V638.792H446.422V653.942H444.422ZM444.422 636.267V621.117H446.422V636.267H444.422ZM444.422 618.592V603.442H446.422V618.592H444.422ZM444.422 600.917V585.767H446.422V600.917H444.422ZM444.422 583.242V568.092H446.422V583.242H444.422ZM444.422 565.567V550.417H446.422V565.567H444.422ZM444.422 547.892V532.742H446.422V547.892H444.422ZM444.422 530.217V515.067H446.422V530.217H444.422ZM444.422 512.542V497.392H446.422V512.542H444.422ZM444.422 494.867V479.717H446.422V494.867H444.422ZM444.422 477.192V462.042H446.422V477.192H444.422ZM444.422 459.517V444.367H446.422V459.517H444.422ZM444.422 441.842V426.692H446.422V441.842H444.422ZM444.422 424.167V409.017H446.422V424.167H444.422ZM444.422 406.492V391.342H446.422V406.492H444.422ZM444.422 388.817V373.667H446.422V388.817H444.422ZM444.422 371.142V369.787C444.422 364.284 446.26 360.036 449.927 357.051L451.016 359.168C447.953 361.66 446.422 365.198 446.422 369.787V371.142H444.422ZM451.88 355.762C453.328 355.012 454.844 354.637 456.422 354.637H464.182V357.162H456.422C455.104 357.162 453.844 357.478 452.635 358.103L451.88 355.762ZM466.182 354.637H478.182V357.162H466.182V354.637ZM480.182 354.637H492.182V357.162H480.182V354.637ZM494.182 354.637H506.182V357.162H494.182V354.637ZM508.182 354.637H520.182V357.162H508.182V354.637ZM522.182 354.637H534.182V357.162H522.182V354.637ZM536.182 354.637H548.182V357.162H536.182V354.637ZM550.182 354.637H562.182V357.162H550.182V354.637ZM564.182 354.637H576.182V357.162H564.182V354.637ZM578.182 354.637H582.219V357.162H578.182V354.637Z" fill="#007BFF" fill-opacity="0.2"/>
<path d="M578.219 352.113L582.219 355.9L578.219 359.688" stroke="#007BFF" stroke-opacity="0.2" stroke-width="0.324285" stroke-linecap="round" stroke-linejoin="round"/>
<path d="M697.838 492.355V477.205H699.838V492.355H697.838ZM697.838 474.68V459.53H699.838V474.68H697.838ZM697.838 457.005V441.855H699.838V457.005H697.838ZM697.838 439.33V424.18H699.838V439.33H697.838ZM697.838 421.655V411.496C697.838 409.635 698.098 407.847 698.619 406.124L700.489 407.018C700.057 408.452 699.838 409.944 699.838 411.496V421.655H697.838ZM699.577 403.638C701.921 398.773 705.338 396.346 709.838 396.346H710.619V398.871H709.838C706.088 398.871 703.239 400.896 701.291 404.947L699.577 403.638ZM712.619 396.346H724.619V398.871H712.619V396.346ZM726.619 396.346H738.619V398.871H726.619V396.346ZM740.619 396.346H752.619V398.871H740.619V396.346ZM754.619 396.346H766.619V398.871H754.619V396.346ZM768.619 396.346H780.619V398.871H768.619V396.346ZM782.619 396.346H794.619V398.871H782.619V396.346ZM796.619 396.346H808.619V398.871H796.619V396.346ZM810.619 396.346H822.619V398.871H810.619V396.346ZM824.619 396.346H836.619V398.871H824.619V396.346ZM838.619 396.346H850.619V398.871H838.619V396.346ZM852.619 396.346H864.619V398.871H852.619V396.346ZM866.588 396.326C870.645 396.037 873.505 393.538 875.156 388.844L876.984 389.863C874.999 395.505 871.572 398.496 866.702 398.845L866.588 396.326ZM875.734 386.687C875.921 385.72 876.015 384.727 876.015 383.721V371.806H878.015V383.721C878.015 384.931 877.9 386.115 877.682 387.279L875.734 386.687ZM876.015 369.281V354.131H878.015V369.281H876.015ZM876.015 351.606V336.456H878.015V351.606H876.015ZM876.015 333.931V318.781H878.015V333.931H876.015ZM876.015 316.256V301.106H878.015V316.256H876.015ZM876.015 298.581V283.431H878.015V298.581H876.015ZM876.015 280.906V265.756H878.015V280.906H876.015ZM876.015 263.231V248.081H878.015V263.231H876.015ZM876.015 245.556V230.406H878.015V245.556H876.015ZM876.015 227.881V212.731H878.015V227.881H876.015ZM876.015 210.206V195.056H878.015V210.206H876.015ZM876.015 192.531V177.381H878.015V192.531H876.015ZM876.015 174.856V159.706H878.015V174.856H876.015ZM876.015 157.181V142.031H878.015V157.181H876.015ZM876.015 139.506V124.356H878.015V139.506H876.015ZM876.015 121.831V106.681H878.015V121.831H876.015ZM876.015 104.156V89.0063H878.015V104.156H876.015ZM876.015 86.4814V71.3314H878.015V86.4814H876.015ZM876.015 68.8064V53.6563H878.015V68.8064H876.015ZM876.015 51.1313V35.9813H878.015V51.1313H876.015ZM876.015 33.4563V18.3063H878.015V33.4563H876.015ZM876.015 15.7813V0.631348H878.015V15.7813H876.015Z" fill="#007BFF" fill-opacity="0.2"/>
<path d="M876.016 392.559H888.016V395.084H876.016V392.559ZM890.016 392.559H902.016V395.084H890.016V392.559ZM904.016 392.559H916.016V395.084H904.016V392.559ZM918.016 392.559H930.016V395.084H918.016V392.559ZM932.016 392.559H944.016V395.084H932.016V392.559ZM946.016 392.559H958.016V395.084H946.016V392.559ZM960.016 392.559H972.016V395.084H960.016V392.559ZM974.016 392.559H986.016V395.084H974.016V392.559ZM988.016 392.559H1000.02V395.084H988.016V392.559ZM1002.02 392.559H1014.02V395.084H1002.02V392.559ZM1016.02 392.559H1028.02V395.084H1016.02V392.559ZM1030.02 392.559H1042.02V395.084H1030.02V392.559ZM1044.02 392.559H1056.02V395.084H1044.02V392.559ZM1058.21 392.762C1063.02 393.775 1066.16 397.214 1067.65 403.066L1065.74 403.842C1064.51 398.963 1061.89 396.096 1057.89 395.255L1058.21 392.762ZM1068.13 405.756C1068.19 406.4 1068.22 407.051 1068.22 407.709V421.116H1066.22V407.709C1066.22 407.163 1066.19 406.617 1066.14 406.078L1068.13 405.756ZM1068.22 423.641V438.791H1066.22V423.641H1068.22ZM1068.22 441.316V456.466H1066.22V441.316H1068.22ZM1068.22 458.991V474.141H1066.22V458.991H1068.22ZM1068.22 476.666V491.816H1066.22V476.666H1068.22ZM1068.22 494.341V509.491H1066.22V494.341H1068.22ZM1068.22 512.016V527.166H1066.22V512.016H1068.22ZM1068.22 529.691V544.841H1066.22V529.691H1068.22ZM1068.22 547.366V562.516H1066.22V547.366H1068.22ZM1068.22 565.041V580.191H1066.22V565.041H1068.22ZM1068.22 582.716V597.866H1066.22V582.716H1068.22ZM1068.22 600.391V615.541H1066.22V600.391H1068.22ZM1068.22 618.066V633.216H1066.22V618.066H1068.22ZM1068.22 635.741V650.891H1066.22V635.741H1068.22ZM1068.22 653.416V668.566H1066.22V653.416H1068.22ZM1068.22 671.091V686.241H1066.22V671.091H1068.22ZM1068.22 688.766V703.916H1066.22V688.766H1068.22ZM1068.22 706.441V721.591H1066.22V706.441H1068.22ZM1068.22 724.116V739.266H1066.22V724.116H1068.22ZM1068.22 741.791V756.941H1066.22V741.791H1068.22ZM1068.22 759.466V774.616H1066.22V759.466H1068.22ZM1068.22 777.141V792.291H1066.22V777.141H1068.22ZM1068.22 794.816V809.966H1066.22V794.816H1068.22ZM1068.22 812.491V827.641H1066.22V812.491H1068.22ZM1068.22 830.166V845.316H1066.22V830.166H1068.22ZM1068.22 847.841V862.991H1066.22V847.841H1068.22ZM1068.22 865.516V880.666H1066.22V865.516H1068.22ZM1068.22 883.191V898.341H1066.22V883.191H1068.22ZM1068.22 900.866V916.016H1066.22V900.866H1068.22ZM1068.22 918.541V933.691H1066.22V918.541H1068.22ZM1068.22 936.216V951.366H1066.22V936.216H1068.22ZM1068.22 953.891V969.041H1066.22V953.891H1068.22ZM1068.22 971.566V986.716H1066.22V971.566H1068.22ZM1068.22 989.241V1004.39H1066.22V989.241H1068.22ZM1068.22 1006.92V1022.07H1066.22V1006.92H1068.22ZM1068.22 1024.59V1039.74H1066.22V1024.59H1068.22ZM1068.22 1042.27V1057.42H1066.22V1042.27H1068.22ZM1068.22 1059.94V1075.09H1066.22V1059.94H1068.22ZM1068.22 1077.62V1092.77H1066.22V1077.62H1068.22ZM1068.22 1095.29V1109.74H1066.22V1095.29H1068.22Z" fill="#007BFF" fill-opacity="0.2"/>
<path d="M1070.22 1104.69L1067.22 1109.74L1064.22 1104.69" stroke="#007BFF" stroke-opacity="0.2" stroke-width="0.324285" stroke-linecap="round" stroke-linejoin="round"/>
<path d="M951.063 510.464L948.86 507.676C948.558 507.295 948.136 507.071 947.704 507.071H943.6V518.868H944.87C944.87 516.954 946.1 515.402 947.615 515.402C949.131 515.402 950.36 516.961 950.36 518.868H950.855C951.287 518.868 951.631 518.434 951.631 517.888V512.213C951.641 511.556 951.433 510.925 951.063 510.464ZM944.391 511.168V508.064H947.709C947.933 508.064 948.146 508.176 948.303 508.38L950.511 511.168H944.391Z" fill="#007BFF" fill-opacity="0.2"/>
<path d="M947.62 516.113C946.411 516.113 945.438 517.349 945.438 518.868C945.438 520.393 946.411 521.63 947.62 521.63C948.828 521.63 949.802 520.393 949.802 518.868C949.802 517.349 948.828 516.113 947.62 516.113ZM947.62 520.288C946.995 520.288 946.495 519.65 946.495 518.868C946.495 518.085 947 517.448 947.62 517.448C948.245 517.448 948.745 518.092 948.745 518.868C948.75 519.657 948.245 520.288 947.62 520.288Z" fill="#007BFF" fill-opacity="0.2"/>
<path d="M932.005 516.113C930.801 516.113 929.822 517.349 929.822 518.868C929.822 520.393 930.801 521.63 932.005 521.63C933.213 521.63 934.192 520.393 934.192 518.868C934.192 517.349 933.213 516.113 932.005 516.113ZM932.005 520.288C931.385 520.288 930.885 519.65 930.885 518.868C930.885 518.085 931.39 517.448 932.005 517.448C932.624 517.448 933.13 518.092 933.13 518.868C933.135 519.657 932.63 520.288 932.005 520.288Z" fill="#007BFF" fill-opacity="0.2"/>
<mask id="mask9_1966_1427" style="mask-type:luminance" maskUnits="userSpaceOnUse" x="926" y="503" width="18" height="18">
<path d="M926.068 503.146H944.001V520.15H926.068V503.146Z" fill="white"/>
</mask>
<g mask="url(#mask9_1966_1427)">
<path d="M942.256 503.146H926.86C926.433 503.146 926.084 503.58 926.084 504.126V517.881C926.084 518.427 926.433 518.861 926.86 518.861H929.261C929.261 516.948 930.495 515.396 932.006 515.396C933.521 515.396 934.756 516.954 934.756 518.861H943.032V504.126C943.037 503.58 942.688 503.146 942.256 503.146Z" fill="#007BFF" fill-opacity="0.2"/>
</g>
<mask id="mask10_1966_1427" style="mask-type:luminance" maskUnits="userSpaceOnUse" x="472" y="782" width="20" height="33">
<path d="M472.057 782.093H491.057V814.733H472.057V782.093Z" fill="white"/>
</mask>
<g mask="url(#mask10_1966_1427)">
<path d="M479.916 808.625C479.551 807.277 478.88 806.093 477.989 805.218L475.791 803.068C473.541 800.859 472.171 797.512 472.057 793.915C472.057 787.386 476.244 782.099 481.416 782.099C486.583 782.099 490.775 787.386 490.775 793.915C490.656 797.512 489.286 800.859 487.036 803.068L484.838 805.218C483.947 806.093 483.275 807.277 482.911 808.625L482.656 809.578C482.473 810.242 481.973 810.696 481.416 810.696C480.854 810.696 480.354 810.242 480.176 809.578L479.916 808.625ZM481.416 814.713C479.348 814.713 477.671 814.391 477.671 814.003C477.671 813.609 479.348 813.293 481.416 813.293C483.484 813.293 485.156 813.609 485.156 814.003C485.156 814.391 483.484 814.713 481.416 814.713ZM481.416 803.134C485.551 803.134 488.9 798.899 488.9 793.678C488.9 788.457 485.551 784.223 481.416 784.223C477.281 784.223 473.926 788.457 473.926 793.678C473.926 798.899 477.281 803.134 481.416 803.134ZM476.546 797.216L476.562 790.844L480.952 794.047L480.958 800.418L476.546 797.216ZM481.906 794.047L486.265 790.844L486.281 797.216L481.906 800.425V794.047ZM477.036 789.792L481.4 786.59L485.791 789.792L481.432 792.995L477.036 789.792Z" fill="#007BFF" fill-opacity="0.2"/>
</g>
<mask id="mask11_1966_1427" style="mask-type:luminance" maskUnits="userSpaceOnUse" x="926" y="361" width="20" height="33">
<path d="M926.068 361.174H945.068V393.9H926.068V361.174Z" fill="white"/>
</mask>
<g mask="url(#mask11_1966_1427)">
<path d="M933.928 387.712C933.563 386.364 932.891 385.181 932.001 384.306L929.808 382.156C927.553 379.947 926.183 376.6 926.068 373.003C926.068 366.473 930.256 361.187 935.428 361.187C940.594 361.187 944.787 366.473 944.787 373.003C944.667 376.6 943.298 379.947 941.048 382.156L938.855 384.306C937.959 385.181 937.292 386.364 936.923 387.712L936.667 388.659C936.485 389.33 935.985 389.777 935.428 389.777C934.865 389.777 934.37 389.33 934.188 388.659L933.928 387.712ZM935.428 393.795C933.36 393.795 931.683 393.479 931.683 393.091C931.683 392.697 933.36 392.381 935.428 392.381C937.495 392.381 939.173 392.697 939.173 393.091C939.173 393.479 937.495 393.795 935.428 393.795ZM935.428 382.215C939.563 382.215 942.912 377.987 942.912 372.766C942.912 367.545 939.563 363.311 935.428 363.311C931.292 363.311 927.938 367.545 927.938 372.766C927.938 377.987 931.292 382.215 935.428 382.215ZM930.558 376.304L930.574 369.926L934.969 373.134V379.506L930.558 376.304ZM935.917 373.128L940.277 369.926L940.292 376.297L935.917 379.513V373.128ZM931.048 368.874L935.412 365.671L939.803 368.874L935.443 372.076L931.048 368.874Z" fill="#007BFF" fill-opacity="0.2"/>
</g>
<mask id="mask12_1966_1427" style="mask-type:luminance" maskUnits="userSpaceOnUse" x="489" y="340" width="10" height="14">
<path d="M489.332 340.033H498.056V353.5H489.332V340.033Z" fill="white"/>
</mask>
<g mask="url(#mask12_1966_1427)">
<path d="M497.053 344.722L494.85 341.94C494.542 341.552 494.126 341.335 493.693 341.335H489.584V353.132H490.86C490.86 351.212 492.089 349.666 493.605 349.666C495.12 349.666 496.35 351.218 496.35 353.132H496.844C497.277 353.132 497.62 352.691 497.62 352.152V346.477C497.631 345.82 497.423 345.182 497.053 344.722ZM490.381 345.425V342.328H493.699C493.923 342.328 494.136 342.433 494.292 342.644L496.495 345.425H490.381Z" fill="#007BFF" fill-opacity="0.2"/>
</g>
<mask id="mask13_1966_1427" style="mask-type:luminance" maskUnits="userSpaceOnUse" x="490" y="350" width="6" height="7">
<path d="M490.664 350.133H495.997V356.341H490.664V350.133Z" fill="white"/>
</mask>
<g mask="url(#mask13_1966_1427)">
<path d="M493.606 350.376C492.398 350.376 491.424 351.606 491.424 353.132C491.424 354.651 492.398 355.887 493.606 355.887C494.809 355.887 495.788 354.651 495.788 353.132C495.788 351.606 494.809 350.376 493.606 350.376ZM493.606 354.552C492.981 354.552 492.481 353.908 492.481 353.132C492.481 352.343 492.986 351.711 493.606 351.711C494.231 351.711 494.731 352.349 494.731 353.132C494.736 353.914 494.231 354.552 493.606 354.552Z" fill="#007BFF" fill-opacity="0.2"/>
</g>
<mask id="mask14_1966_1427" style="mask-type:luminance" maskUnits="userSpaceOnUse" x="474" y="350" width="8" height="7">
<path d="M474.668 350.133H481.335V356.341H474.668V350.133Z" fill="white"/>
</mask>
<g mask="url(#mask14_1966_1427)">
<path d="M477.995 350.376C476.792 350.376 475.812 351.606 475.812 353.132C475.812 354.651 476.792 355.887 477.995 355.887C479.203 355.887 480.177 354.651 480.177 353.132C480.177 351.606 479.203 350.376 477.995 350.376ZM477.995 354.552C477.375 354.552 476.87 353.908 476.87 353.132C476.87 352.343 477.38 351.711 477.995 351.711C478.615 351.711 479.12 352.349 479.12 353.132C479.125 353.914 478.62 354.552 477.995 354.552Z" fill="#007BFF" fill-opacity="0.2"/>
</g>
<mask id="mask15_1966_1427" style="mask-type:luminance" maskUnits="userSpaceOnUse" x="472" y="337" width="18" height="17">
<path d="M472.057 337.403H489.333V353.5H472.057V337.403Z" fill="white"/>
</mask>
<g mask="url(#mask15_1966_1427)">
<path d="M488.244 337.403H472.848C472.421 337.403 472.072 337.844 472.072 338.383V352.146C472.072 352.685 472.421 353.125 472.848 353.125H475.249C475.249 351.205 476.484 349.66 477.994 349.66C479.51 349.66 480.739 351.212 480.739 353.125H489.015V338.383C489.02 337.844 488.676 337.403 488.244 337.403Z" fill="#007BFF" fill-opacity="0.2"/>
</g>
<path d="M793.874 640.213H781.874V637.688H793.874V640.213ZM779.874 640.213H767.874V637.688H779.874V640.213ZM765.874 640.213H753.874V637.688H765.874V640.213ZM751.874 640.213H739.874V637.688H751.874V640.213ZM737.874 640.213H725.874V637.688H737.874V640.213ZM723.874 640.213H711.874V637.688H723.874V640.213ZM709.874 640.213H697.874V637.688H709.874V640.213ZM695.874 640.213H683.874V637.688H695.874V640.213ZM681.874 640.213H669.874V637.688H681.874V640.213ZM667.874 640.213H663.822C661.281 640.213 659.067 641.278 657.171 643.408L655.843 641.521C658.114 638.97 660.775 637.688 663.822 637.688H667.874V640.213ZM655.926 645.085C654.525 647.36 653.822 649.944 653.822 652.838V658.874H651.822V652.838C651.822 649.366 652.666 646.269 654.354 643.533L655.926 645.085ZM653.822 661.399V676.549H651.822V661.399H653.822ZM653.822 679.074V694.224H651.822V679.074H653.822ZM653.822 696.749V711.899H651.822V696.749H653.822ZM653.822 714.424V729.574H651.822V714.424H653.822ZM653.822 732.099V747.249H651.822V732.099H653.822ZM653.822 749.774V764.924H651.822V749.774H653.822ZM653.822 767.449V782.599H651.822V767.449H653.822ZM653.822 785.124V800.274H651.822V785.124H653.822ZM653.822 802.799V817.949H651.822V802.799H653.822ZM653.822 820.474V835.624H651.822V820.474H653.822ZM653.822 838.149V853.299H651.822V838.149H653.822ZM653.822 855.824V870.974H651.822V855.824H653.822ZM653.822 873.499V888.649H651.822V873.499H653.822ZM653.822 891.174V906.324H651.822V891.174H653.822ZM653.822 908.849V923.999H651.822V908.849H653.822ZM653.822 926.524V941.674H651.822V926.524H653.822ZM653.822 944.199V959.349H651.822V944.199H653.822ZM653.822 961.874V977.024H651.822V961.874H653.822ZM653.822 979.549V994.699H651.822V979.549H653.822ZM653.822 997.224V1012.37H651.822V997.224H653.822ZM653.822 1014.9V1030.05H651.822V1014.9H653.822ZM653.822 1032.57V1047.72H651.822V1032.57H653.822ZM653.822 1050.25V1065.4H651.822V1050.25H653.822ZM653.822 1067.92V1083.07H651.822V1067.92H653.822ZM653.822 1085.6V1100.75H651.822V1085.6H653.822ZM653.822 1103.27V1109.74H651.822V1103.27H653.822Z" fill="#007BFF" fill-opacity="0.2"/>
<path d="M655.822 1104.69L652.822 1109.74L649.822 1104.69" stroke="#007BFF" stroke-opacity="0.2" stroke-width="0.324285" stroke-linecap="round" stroke-linejoin="round"/>
<mask id="mask16_1966_1427" style="mask-type:luminance" maskUnits="userSpaceOnUse" x="698" y="622" width="9" height="13">
<path d="M698.254 622.833H706.665V634.617H698.254V622.833Z" fill="white"/>
</mask>
<g mask="url(#mask16_1966_1427)">
<path d="M702.244 631.454C701.921 631.316 701.587 631.25 701.249 631.25C700.176 631.25 699.202 631.947 698.639 633.058C698.306 633.032 698.223 632.789 698.759 631.908C699.619 630.494 700.817 630.218 701.66 630.231C701.712 630.053 701.77 629.863 701.827 629.665C702.343 627.857 703.504 627.002 704.186 626.641L704.843 624.214C704.884 624.07 704.968 623.951 705.077 623.886C705.192 623.82 705.317 623.82 705.431 623.872L706.66 624.491C706.535 624.556 706.426 624.661 706.343 624.8C706.228 624.99 706.171 625.22 706.176 625.457L705.535 625.135L703.53 632.513C703.181 632.033 702.744 631.671 702.244 631.454Z" fill="#007BFF" fill-opacity="0.2"/>
</g>
<mask id="mask17_1966_1427" style="mask-type:luminance" maskUnits="userSpaceOnUse" x="713" y="619" width="8" height="11">
<path d="M713.336 619.467H720.227V629.567H713.336V619.467Z" fill="white"/>
</mask>
<g mask="url(#mask17_1966_1427)">
<path d="M714.163 620.315H719.778C720.044 620.315 720.257 620.578 720.257 620.913V627.903C720.257 628.238 720.044 628.501 719.778 628.501H714.163C713.903 628.501 713.689 628.238 713.689 627.903V620.913C713.689 620.578 713.903 620.315 714.163 620.315Z" fill="#007BFF" fill-opacity="0.2"/>
</g>
<mask id="mask18_1966_1427" style="mask-type:luminance" maskUnits="userSpaceOnUse" x="710" y="631" width="8" height="8">
<path d="M710.666 631.25H717.333V638.667H710.666V631.25Z" fill="white"/>
</mask>
<g mask="url(#mask18_1966_1427)">
<path d="M711.916 634.078C712.385 632.329 713.89 631.395 715.276 631.987C716.661 632.578 717.406 634.479 716.932 636.228C716.463 637.977 714.958 638.917 713.573 638.325C712.187 637.727 711.442 635.833 711.916 634.078ZM714.088 636.405C714.635 636.642 715.229 636.267 715.416 635.577C715.599 634.886 715.307 634.137 714.76 633.9C714.213 633.67 713.619 634.038 713.432 634.729C713.25 635.419 713.541 636.175 714.088 636.405Z" fill="#007BFF" fill-opacity="0.2"/>
</g>
<path d="M703.984 624.74C703.984 625.68 703.375 626.45 702.625 626.45C701.88 626.45 701.88 623.024 702.625 623.024C703.375 623.024 703.984 623.793 703.984 624.74Z" fill="#007BFF" fill-opacity="0.2"/>
<mask id="mask19_1966_1427" style="mask-type:luminance" maskUnits="userSpaceOnUse" x="698" y="631" width="6" height="8">
<path d="M698.254 631.25H703.999V638.667H698.254V631.25Z" fill="white"/>
</mask>
<g mask="url(#mask19_1966_1427)">
<path d="M703.759 636.228C703.29 637.977 701.785 638.917 700.399 638.325C699.014 637.727 698.269 635.833 698.738 634.078C699.212 632.329 700.712 631.395 702.102 631.987C703.488 632.578 704.227 634.479 703.759 636.228ZM700.915 636.405C701.462 636.642 702.056 636.267 702.243 635.577C702.425 634.886 702.134 634.137 701.587 633.9C701.04 633.67 700.446 634.038 700.259 634.729C700.071 635.419 700.368 636.175 700.915 636.405Z" fill="#007BFF" fill-opacity="0.2"/>
</g>
<path d="M710.443 630.79V629.554C710.443 629.304 710.605 629.1 710.803 629.1H718.053C718.245 629.1 718.407 629.304 718.407 629.554V630.79C718.407 631.033 718.245 631.237 718.053 631.237H718.011C718.396 632.434 718.995 634.505 718.995 635.912C718.995 635.912 718.391 635.912 717.459 635.912C717.594 635.077 717.506 634.209 717.199 633.427C716.834 632.493 716.204 631.789 715.417 631.454C715.094 631.316 714.761 631.25 714.423 631.25C713.1 631.25 711.923 632.315 711.495 633.9C711.313 634.571 711.287 635.261 711.391 635.912C711.178 635.912 710.969 635.912 710.766 635.912C710.23 635.912 709.73 635.912 709.298 635.912H704.287C704.36 635.465 704.365 635.011 704.313 634.571H709.985C710.475 633.321 710.641 632.046 710.699 631.217C710.553 631.158 710.443 630.987 710.443 630.79Z" fill="#007BFF" fill-opacity="0.2"/>
<path d="M707.079 626.41C707.631 626.318 708.126 626.16 708.563 625.957H710.516C710.516 625.496 710.485 625.03 710.438 624.569C711.615 623.248 711.959 621.729 711.985 621.63C712.1 621.091 711.85 620.538 711.423 620.394C711.355 620.374 711.287 620.361 711.214 620.361C710.86 620.361 710.542 620.663 710.449 621.097C710.438 621.137 710.345 621.538 710.084 622.051C710.074 622.005 710.069 621.965 710.063 621.919C709.839 620.953 710.131 619.789 710.787 619.585C711.449 619.375 712.402 619.828 712.792 621.255C713.319 623.221 713.433 624.503 713.23 626.667C713.011 628.1 712.282 628.357 711.615 628.383C711.579 628.39 711.542 628.39 711.501 628.39H708.912L709.735 632.624C709.865 633.282 709.548 633.939 709.032 634.097C708.954 634.123 708.876 634.137 708.798 634.137C708.365 634.137 707.97 633.762 707.865 633.209L706.746 627.462C706.673 627.101 706.74 626.719 706.923 626.424C706.923 626.417 706.928 626.417 706.928 626.417C706.944 626.417 706.959 626.417 706.975 626.417C707.006 626.417 707.042 626.417 707.079 626.41Z" fill="#007BFF" fill-opacity="0.2"/>
<path d="M706.36 625.516C706.319 625.089 706.553 624.694 706.892 624.641C709.912 624.135 710.589 621.288 710.621 621.156C710.709 620.742 711.048 620.499 711.376 620.611C711.709 620.722 711.902 621.156 711.813 621.571C711.777 621.728 710.918 625.542 707.053 626.187C707.027 626.193 707.001 626.193 706.975 626.193C706.668 626.193 706.402 625.911 706.36 625.516Z" fill="#007BFF" fill-opacity="0.2"/>
<path d="M708.271 618.092L707.657 618.566C707.594 618.408 707.542 618.244 707.511 618.066C707.443 617.711 707.453 617.349 707.521 617.021H708.271V618.092Z" fill="#007BFF" fill-opacity="0.2"/>
<path d="M709.593 619.703C709.354 619.769 709.114 619.776 708.885 619.723L710.843 618.276C710.656 618.967 710.197 619.526 709.593 619.703Z" fill="#007BFF" fill-opacity="0.2"/>
<mask id="mask20_1966_1427" style="mask-type:luminance" maskUnits="userSpaceOnUse" x="705" y="614" width="7" height="8">
<path d="M705.334 614.68H712.001V621.15H705.334V614.68Z" fill="white"/>
</mask>
<g mask="url(#mask20_1966_1427)">
<path d="M709.234 614.699C710.885 614.699 711.202 615.535 711.202 617.764L707.65 620.381L707.364 619.039L708.442 618.211V616.81H706.557C706.557 616.81 707.583 614.699 709.234 614.699Z" fill="#007BFF" fill-opacity="0.2"/>
</g>
<path d="M1305.32 196.753H1293.32V194.228H1305.32V196.753ZM1291.32 196.753H1279.32V194.228H1291.32V196.753ZM1277.32 196.753H1265.32V194.228H1277.32V196.753ZM1263.32 196.753H1251.32V194.228H1263.32V196.753ZM1249.32 196.753H1237.32V194.228H1249.32V196.753ZM1235.32 196.753H1223.32V194.228H1235.32V196.753ZM1221.32 196.753H1209.32V194.228H1221.32V196.753ZM1207.32 196.753H1195.32V194.228H1207.32V196.753ZM1193.32 196.753H1181.32V194.228H1193.32V196.753ZM1179.32 196.753H1167.32V194.228H1179.32V196.753ZM1165.32 196.753H1153.32V194.228H1165.32V196.753ZM1151.32 196.753H1148.42C1144.89 196.753 1141.93 195.102 1139.55 191.808L1141.03 190.105C1143.01 192.853 1145.47 194.228 1148.42 194.228H1151.32V196.753ZM1138.23 189.612C1137.02 187.166 1136.42 184.496 1136.42 181.603V174.126H1138.42V181.603C1138.42 184.016 1138.92 186.238 1139.93 188.277L1138.23 189.612ZM1136.42 171.601V156.451H1138.42V171.601H1136.42ZM1136.42 153.926V138.776H1138.42V153.926H1136.42ZM1136.42 136.251V121.101H1138.42V136.251H1136.42ZM1136.42 118.576V116.637C1136.42 113.152 1135.44 110.173 1133.49 107.714C1133.08 107.194 1132.64 106.727 1132.17 106.306L1133.31 104.242C1133.89 104.741 1134.41 105.307 1134.91 105.925C1137.24 108.884 1138.42 112.455 1138.42 116.637V118.576H1136.42ZM1130.59 105.162C1129.27 104.393 1127.88 104.012 1126.42 104.012H1119.12V101.487H1126.42C1128.17 101.487 1129.83 101.947 1131.42 102.867L1130.59 105.162ZM1117.12 104.012H1105.12V101.487H1117.12V104.012ZM1103.12 104.012H1091.12V101.487H1103.12V104.012ZM1089.12 104.012H1077.12V101.487H1089.12V104.012ZM1075.12 104.012H1063.12V101.487H1075.12V104.012ZM1061.12 104.012H1049.12V101.487H1061.12V104.012ZM1047.12 104.012H1035.12V101.487H1047.12V104.012ZM1033.12 104.012H1021.12V101.487H1033.12V104.012ZM1019.12 104.012H1007.12V101.487H1019.12V104.012ZM1005.12 104.012H993.12V101.487H1005.12V104.012ZM991.12 104.012H979.12V101.487H991.12V104.012ZM977.12 104.012H965.12V101.487H977.12V104.012ZM963.12 104.012H951.12V101.487H963.12V104.012ZM949.12 104.012H937.12V101.487H949.12V104.012ZM935.12 104.012H923.12V101.487H935.12V104.012ZM921.12 104.012H909.12V101.487H921.12V104.012ZM907.12 104.012H895.12V101.487H907.12V104.012ZM893.12 104.012H881.12V101.487H893.12V104.012ZM879.12 104.012H867.12V101.487H879.12V104.012ZM865.12 104.012H853.12V101.487H865.12V104.012ZM851.12 104.012H839.12V101.487H851.12V104.012ZM837.12 104.012H825.12V101.487H837.12V104.012ZM823.12 104.012H811.12V101.487H823.12V104.012ZM809.12 104.012H798.63C798.156 104.012 797.688 104.051 797.224 104.137L796.943 101.638C797.5 101.539 798.062 101.487 798.63 101.487H809.12V104.012ZM795.458 104.663C791.604 106.287 789.37 109.634 788.75 114.69L786.771 114.302C787.516 108.233 790.198 104.222 794.823 102.269L795.458 104.663ZM788.63 117.071V132.221H786.63V117.071H788.63ZM788.63 134.746V149.896H786.63V134.746H788.63ZM788.63 152.421V167.571H786.63V152.421H788.63ZM788.63 170.096V181.603C788.63 182.964 788.49 184.292 788.208 185.594L786.281 184.93C786.516 183.845 786.63 182.74 786.63 181.603V170.096H788.63ZM787.453 188.159C785.339 193.721 781.839 196.582 776.958 196.746L776.901 194.221C780.969 194.09 783.885 191.703 785.651 187.06L787.453 188.159ZM774.917 196.753H762.917V194.228H774.917V196.753ZM760.917 196.753H748.917V194.228H760.917V196.753ZM746.917 196.753H734.917V194.228H746.917V196.753ZM732.917 196.753H720.917V194.228H732.917V196.753ZM718.917 196.753H706.917V194.228H718.917V196.753ZM704.917 196.753H692.917V194.228H704.917V196.753ZM690.917 196.753H678.917V194.228H690.917V196.753ZM676.917 196.753H664.917V194.228H676.917V196.753ZM662.917 196.753H650.917V194.228H662.917V196.753ZM648.917 196.753H636.917V194.228H648.917V196.753ZM634.917 196.753H622.917V194.228H634.917V196.753ZM620.917 196.753H608.917V194.228H620.917V196.753ZM606.917 196.753H594.917V194.228H606.917V196.753ZM592.917 196.753H585.911C583.453 196.753 582.219 195.201 582.219 192.091V190.993H584.219V192.091C584.219 193.518 584.786 194.228 585.911 194.228H592.917V196.753Z" fill="#007BFF" fill-opacity="0.2"/>
<mask id="mask21_1966_1427" style="mask-type:luminance" maskUnits="userSpaceOnUse" x="690" y="180" width="10" height="14">
<path d="M690.666 180.117H699.244V193.583H690.666V180.117Z" fill="white"/>
</mask>
<g mask="url(#mask21_1966_1427)">
<path d="M698.244 184.312L696.041 181.53C695.734 181.143 695.312 180.919 694.88 180.919H690.775V192.715H692.046C692.046 190.802 693.281 189.25 694.791 189.25C696.312 189.25 697.536 190.809 697.536 192.715H698.031C698.463 192.715 698.812 192.281 698.812 191.736V186.068C698.822 185.403 698.609 184.772 698.244 184.312ZM691.567 185.015V181.912H694.885C695.109 181.912 695.322 182.024 695.484 182.234L697.687 185.015H691.567Z" fill="#007BFF" fill-opacity="0.2"/>
</g>
<mask id="mask22_1966_1427" style="mask-type:luminance" maskUnits="userSpaceOnUse" x="692" y="188" width="6" height="8">
<path d="M692 188.533H697.333V195.931H692V188.533Z" fill="white"/>
</mask>
<g mask="url(#mask22_1966_1427)">
<path d="M694.796 189.96C693.592 189.96 692.613 191.196 692.613 192.715C692.613 194.241 693.592 195.477 694.796 195.477C696.004 195.477 696.978 194.241 696.978 192.715C696.978 191.196 696.004 189.96 694.796 189.96ZM694.796 194.136C694.171 194.136 693.671 193.498 693.671 192.715C693.671 191.933 694.176 191.302 694.796 191.302C695.421 191.302 695.921 191.939 695.921 192.715C695.926 193.504 695.421 194.136 694.796 194.136Z" fill="#007BFF" fill-opacity="0.2"/>
</g>
<mask id="mask23_1966_1427" style="mask-type:luminance" maskUnits="userSpaceOnUse" x="675" y="188" width="8" height="8">
<path d="M675.998 188.533H682.665V195.931H675.998V188.533Z" fill="white"/>
</mask>
<g mask="url(#mask23_1966_1427)">
<path d="M679.186 189.96C677.978 189.96 677.004 191.196 677.004 192.715C677.004 194.241 677.978 195.477 679.186 195.477C680.389 195.477 681.368 194.241 681.368 192.715C681.368 191.196 680.389 189.96 679.186 189.96ZM679.186 194.136C678.561 194.136 678.061 193.498 678.061 192.715C678.061 191.933 678.566 191.302 679.186 191.302C679.801 191.302 680.311 191.939 680.311 192.715C680.316 193.504 679.806 194.136 679.186 194.136Z" fill="#007BFF" fill-opacity="0.2"/>
</g>
<mask id="mask24_1966_1427" style="mask-type:luminance" maskUnits="userSpaceOnUse" x="673" y="176" width="18" height="18">
<path d="M673.244 176.993H690.666V193.583H673.244V176.993Z" fill="white"/>
</mask>
<g mask="url(#mask24_1966_1427)">
<path d="M689.437 176.993H674.036C673.609 176.993 673.26 177.427 673.26 177.973V191.729C673.26 192.275 673.609 192.709 674.036 192.709H676.442C676.442 190.795 677.671 189.244 679.187 189.244C680.697 189.244 681.932 190.802 681.932 192.709H690.208V177.973C690.213 177.427 689.864 176.993 689.437 176.993Z" fill="#007BFF" fill-opacity="0.2"/>
</g>
<mask id="mask25_1966_1427" style="mask-type:luminance" maskUnits="userSpaceOnUse" x="1086" y="65" width="20" height="34">
<path d="M1086.02 65.3474H1105.02V98.1724H1086.02V65.3474Z" fill="white"/>
</mask>
<g mask="url(#mask25_1966_1427)">
<path d="M1093.88 91.8797C1093.52 90.5317 1092.84 89.3481 1091.95 88.4735L1089.76 86.3233C1087.51 84.114 1086.14 80.767 1086.02 77.1702C1086.02 70.6407 1090.21 65.354 1095.38 65.354C1100.55 65.354 1104.74 70.6407 1104.74 77.1702C1104.62 80.767 1103.25 84.114 1101 86.3233L1098.81 88.4735C1097.91 89.3481 1097.25 90.5317 1096.88 91.8797L1096.62 92.8265C1096.44 93.4972 1095.94 93.9444 1095.38 93.9444C1094.82 93.9444 1094.32 93.4972 1094.14 92.8265L1093.88 91.8797ZM1095.38 97.962C1093.31 97.962 1091.64 97.6464 1091.64 97.2584C1091.64 96.8639 1093.31 96.5483 1095.38 96.5483C1097.45 96.5483 1099.13 96.8639 1099.13 97.2584C1099.13 97.6464 1097.45 97.962 1095.38 97.962ZM1095.38 86.3825C1099.52 86.3825 1102.87 82.1545 1102.87 76.9335C1102.87 71.7125 1099.52 67.4779 1095.38 67.4779C1091.25 67.4779 1087.89 71.7125 1087.89 76.9335C1087.89 82.1545 1091.25 86.3825 1095.38 86.3825ZM1090.51 80.4711L1090.53 74.0929L1094.92 77.3017V83.6734L1090.51 80.4711ZM1095.87 77.2951L1100.23 74.0994L1100.25 80.4711L1095.87 83.68V77.2951ZM1091 73.0408L1095.37 69.8451L1099.76 73.0474L1095.4 76.2431L1091 73.0408Z" fill="#007BFF" fill-opacity="0.2"/>
</g>
<path d="M105.261 724.642V709.492H107.261V724.642H105.261ZM105.261 706.967V691.817H107.261V706.967H105.261ZM105.261 689.292V674.142H107.261V689.292H105.261ZM105.261 671.617V656.467H107.261V671.617H105.261ZM105.261 653.942V638.792H107.261V653.942H105.261ZM105.261 636.267V621.117H107.261V636.267H105.261ZM105.261 618.592V603.442H107.261V618.592H105.261ZM105.261 600.917V585.767H107.261V600.917H105.261ZM105.261 583.242V568.092H107.261V583.242H105.261ZM105.261 565.567V550.417H107.261V565.567H105.261ZM105.261 547.892V532.742H107.261V547.892H105.261ZM105.261 530.217V515.067H107.261V530.217H105.261ZM105.261 512.542V497.392H107.261V512.542H105.261ZM105.261 494.867V479.717H107.261V494.867H105.261ZM105.261 477.192V473.99C105.261 469.328 106.667 465.481 109.479 462.456L110.776 464.376C108.433 466.901 107.261 470.104 107.261 473.99V477.192H105.261ZM111.266 460.858C113.115 459.511 115.115 458.84 117.261 458.84H123.552V461.365H117.261C115.469 461.365 113.808 461.924 112.266 463.048L111.266 460.858ZM125.552 458.84H137.552V461.365H125.552V458.84ZM139.552 458.84H151.552V461.365H139.552V458.84ZM153.552 458.84H165.552V461.365H153.552V458.84ZM167.552 458.84H179.552V461.365H167.552V458.84ZM181.552 458.84H193.552V461.365H181.552V458.84ZM195.552 458.84H207.552V461.365H195.552V458.84ZM209.552 458.84H214.969C217.047 458.84 218.938 458.097 220.641 456.617L221.776 458.695C219.73 460.471 217.464 461.365 214.969 461.365H209.552V458.84ZM222.042 455.144C223.995 452.679 224.969 449.7 224.969 446.215V441.908H226.969V446.215C226.969 450.397 225.797 453.974 223.453 456.926L222.042 455.144ZM224.969 439.383V424.233H226.969V439.383H224.969ZM224.969 421.708V406.558H226.969V421.708H224.969ZM224.969 404.033V388.883H226.969V404.033H224.969ZM224.969 386.358V371.208H226.969V386.358H224.969ZM224.969 368.683V353.533H226.969V368.683H224.969ZM224.969 351.008V335.858H226.969V351.008H224.969ZM224.969 333.333V318.183H226.969V333.333H224.969ZM224.969 315.658V300.508H226.969V315.658H224.969ZM224.969 297.983V282.833H226.969V297.983H224.969ZM224.969 280.308V265.158H226.969V280.308H224.969ZM224.969 262.633V247.483H226.969V262.633H224.969ZM224.969 244.958V229.808H226.969V244.958H224.969ZM224.969 227.283V212.133H226.969V227.283H224.969ZM224.969 209.608V194.458H226.969V209.608H224.969ZM224.969 191.933V176.783H226.969V191.933H224.969ZM224.969 174.258V159.108H226.969V174.258H224.969ZM224.969 156.583V141.433H226.969V156.583H224.969ZM224.969 138.908V123.758H226.969V138.908H224.969ZM224.969 121.233V106.083H226.969V121.233H224.969ZM224.969 103.558V88.4078H226.969V103.558H224.969ZM224.969 85.8828V70.7328H226.969V85.8828H224.969ZM224.969 68.2078V53.0578H226.969V68.2078H224.969ZM224.969 50.5328V35.3828H226.969V50.5328H224.969ZM224.969 32.8578V17.7078H226.969V32.8578H224.969ZM224.969 15.1828V1.26245H226.969V15.1828H224.969Z" fill="#007BFF" fill-opacity="0.2"/>
<path d="M222.969 6.31245L225.969 1.26245L228.969 6.31245" stroke="#007BFF" stroke-opacity="0.2" stroke-width="0.324285" stroke-linecap="round" stroke-linejoin="round"/>
<path d="M1306.32 0V15.15H1304.32V0H1306.32ZM1306.32 17.675V32.825H1304.32V17.675H1306.32ZM1306.32 35.35V50.5H1304.32V35.35H1306.32ZM1306.32 53.025V68.175H1304.32V53.025H1306.32ZM1306.32 70.7V85.85H1304.32V70.7H1306.32ZM1306.32 88.375V103.525H1304.32V88.375H1306.32ZM1306.32 106.05V121.2H1304.32V106.05H1306.32ZM1306.32 123.725V138.875H1304.32V123.725H1306.32ZM1306.32 141.4V156.55H1304.32V141.4H1306.32ZM1306.32 159.075V174.225H1304.32V159.075H1306.32ZM1306.32 176.75V191.9H1304.32V176.75H1306.32ZM1306.32 194.425V209.575H1304.32V194.425H1306.32ZM1306.32 212.1V227.25H1304.32V212.1H1306.32ZM1306.32 229.775V244.925H1304.32V229.775H1306.32ZM1306.32 247.45V262.6H1304.32V247.45H1306.32ZM1306.32 265.125V280.275H1304.32V265.125H1306.32ZM1306.32 282.8V297.95H1304.32V282.8H1306.32ZM1306.32 300.475V315.625H1304.32V300.475H1306.32ZM1306.32 318.15V333.3H1304.32V318.15H1306.32ZM1306.32 335.825V350.975H1304.32V335.825H1306.32ZM1306.32 353.5V368.65H1304.32V353.5H1306.32ZM1306.32 371.175V386.325H1304.32V371.175H1306.32ZM1306.32 388.85V404H1304.32V388.85H1306.32ZM1306.32 406.525V421.675H1304.32V406.525H1306.32ZM1306.32 424.2V439.35H1304.32V424.2H1306.32ZM1306.32 441.875V457.025H1304.32V441.875H1306.32ZM1306.32 459.55V474.7H1304.32V459.55H1306.32ZM1306.32 477.225V492.375H1304.32V477.225H1306.32ZM1306.32 494.9V510.05H1304.32V494.9H1306.32ZM1306.32 512.575V527.725H1304.32V512.575H1306.32ZM1306.32 530.25V545.4H1304.32V530.25H1306.32ZM1306.32 547.925V563.075H1304.32V547.925H1306.32ZM1306.32 565.6V580.75H1304.32V565.6H1306.32ZM1306.32 583.275V598.425H1304.32V583.275H1306.32ZM1306.32 600.95V616.1H1304.32V600.95H1306.32ZM1306.32 618.625V633.775H1304.32V618.625H1306.32ZM1306.32 636.3V651.45H1304.32V636.3H1306.32ZM1306.32 653.975V669.125H1304.32V653.975H1306.32ZM1306.32 671.65V686.8H1304.32V671.65H1306.32ZM1306.32 689.325V704.475H1304.32V689.325H1306.32ZM1306.32 707V722.15H1304.32V707H1306.32ZM1306.32 724.675V739.825H1304.32V724.675H1306.32ZM1306.32 742.35V757.5H1304.32V742.35H1306.32ZM1306.32 760.025V775.175H1304.32V760.025H1306.32ZM1306.32 777.7V792.85H1304.32V777.7H1306.32ZM1306.32 795.375V810.525H1304.32V795.375H1306.32ZM1306.32 813.05V813.445C1306.32 819.415 1304.25 823.84 1300.1 826.727L1299.14 824.511C1302.59 822.111 1304.32 818.422 1304.32 813.445V813.05H1306.32ZM1298.1 827.825C1296.88 828.338 1295.62 828.595 1294.32 828.595H1285.81V826.07H1294.32C1295.41 826.07 1296.46 825.853 1297.47 825.432L1298.1 827.825ZM1283.81 828.595H1271.81V826.07H1283.81V828.595ZM1269.81 828.595H1257.81V826.07H1269.81V828.595ZM1255.81 828.595H1243.81V826.07H1255.81V828.595ZM1241.81 828.595H1229.81V826.07H1241.81V828.595ZM1227.81 828.595H1215.81V826.07H1227.81V828.595ZM1213.81 828.595H1201.81V826.07H1213.81V828.595ZM1199.81 828.595H1187.81V826.07H1199.81V828.595ZM1185.81 828.595H1173.81V826.07H1185.81V828.595ZM1171.81 828.595H1159.81V826.07H1171.81V828.595ZM1157.81 828.595H1145.81V826.07H1157.81V828.595ZM1143.81 828.595H1131.81V826.07H1143.81V828.595ZM1129.81 828.595H1117.81V826.07H1129.81V828.595ZM1115.81 828.595H1103.81V826.07H1115.81V828.595ZM1101.81 828.595H1089.81V826.07H1101.81V828.595ZM1087.81 828.595H1075.81V826.07H1087.81V828.595ZM1073.81 828.595H1061.81V826.07H1073.81V828.595ZM1059.81 828.595H1047.81V826.07H1059.81V828.595ZM1045.81 828.595H1033.81V826.07H1045.81V828.595ZM1031.81 828.595H1019.81V826.07H1031.81V828.595ZM1017.81 828.595H1005.81V826.07H1017.81V828.595ZM1003.81 828.595H991.808V826.07H1003.81V828.595ZM989.808 828.595H977.808V826.07H989.808V828.595ZM975.808 828.595H963.808V826.07H975.808V828.595ZM961.808 828.595H949.808V826.07H961.808V828.595ZM947.808 828.595H935.808V826.07H947.808V828.595ZM933.808 828.595H921.808V826.07H933.808V828.595ZM919.824 828.601C915.756 828.746 912.844 831.139 911.089 835.782L909.282 834.69C911.391 829.127 914.886 826.254 919.766 826.076L919.824 828.601ZM910.459 837.919C910.23 838.99 910.115 840.095 910.115 841.22V852.753H908.115V841.22C908.115 839.872 908.256 838.55 908.532 837.261L910.459 837.919ZM910.115 855.278V870.428H908.115V855.278H910.115ZM910.115 872.953V888.103H908.115V872.953H910.115ZM910.115 890.628V905.778H908.115V890.628H910.115ZM910.115 908.303V923.453H908.115V908.303H910.115ZM910.115 925.978V941.128H908.115V925.978H910.115ZM910.115 943.653V958.803H908.115V943.653H910.115ZM910.115 961.328V976.478H908.115V961.328H910.115ZM910.115 979.003V991.063C910.115 992.029 910.199 992.976 910.37 993.91L908.423 994.475C908.219 993.357 908.115 992.22 908.115 991.063V979.003H910.115ZM910.933 996.067C912.548 1000.79 915.381 1003.32 919.438 1003.66L919.303 1006.18C914.438 1005.77 911.032 1002.73 909.094 997.066L910.933 996.067ZM921.396 1003.69H933.396V1006.21H921.396V1003.69ZM935.396 1003.69H947.396V1006.21H935.396V1003.69ZM949.396 1003.69H961.396V1006.21H949.396V1003.69ZM963.396 1003.69H975.396V1006.21H963.396V1003.69ZM977.396 1003.69H989.396V1006.21H977.396V1003.69ZM991.396 1003.69H1003.4V1006.21H991.396V1003.69ZM1005.4 1003.69H1017.4V1006.21H1005.4V1003.69ZM1019.4 1003.69H1031.4V1006.21H1019.4V1003.69ZM1033.4 1003.69H1045.4V1006.21H1033.4V1003.69ZM1047.4 1003.69H1059.4V1006.21H1047.4V1003.69ZM1061.4 1003.69H1073.4V1006.21H1061.4V1003.69ZM1075.4 1003.69H1087.4V1006.21H1075.4V1003.69ZM1089.4 1003.69H1101.4V1006.21H1089.4V1003.69ZM1103.4 1003.69H1115.4V1006.21H1103.4V1003.69ZM1117.4 1003.69H1129.4V1006.21H1117.4V1003.69ZM1131.4 1003.69H1143.4V1006.21H1131.4V1003.69ZM1145.4 1003.69H1157.4V1006.21H1145.4V1003.69ZM1159.4 1003.69H1171.4V1006.21H1159.4V1003.69ZM1173.4 1003.69H1185.4V1006.21H1173.4V1003.69ZM1187.4 1003.69H1199.4V1006.21H1187.4V1003.69ZM1201.4 1003.69H1213.4V1006.21H1201.4V1003.69ZM1215.4 1003.69H1227.4V1006.21H1215.4V1003.69ZM1229.4 1003.69H1241.4V1006.21H1229.4V1003.69ZM1243.4 1003.69H1255.4V1006.21H1243.4V1003.69ZM1257.4 1003.69H1269.4V1006.21H1257.4V1003.69ZM1271.4 1003.69H1283.4V1006.21H1271.4V1003.69ZM1285.4 1003.69H1297.4V1006.21H1285.4V1003.69ZM1299.4 1003.69H1311.4V1006.21H1299.4V1003.69ZM1313.4 1003.69H1325.4V1006.21H1313.4V1003.69ZM1327.4 1003.69H1339.4V1006.21H1327.4V1003.69ZM1341.4 1003.69H1353.4V1006.21H1341.4V1003.69ZM1355.4 1003.69H1367.4V1006.21H1355.4V1003.69ZM1369.4 1003.69H1381.4V1006.21H1369.4V1003.69ZM1383.4 1003.69H1395.4V1006.21H1383.4V1003.69ZM1397.4 1003.69H1409.4V1006.21H1397.4V1003.69ZM1411.4 1003.69H1423.4V1006.21H1411.4V1003.69ZM1425.4 1003.69H1437.4V1006.21H1425.4V1003.69ZM1439.4 1003.69H1440V1006.21H1439.4V1003.69Z" fill="#007BFF" fill-opacity="0.2"/>
<path d="M225.969 259.049H237.969V261.574H225.969V259.049ZM239.969 259.049H251.969V261.574H239.969V259.049ZM253.969 259.049H265.969V261.574H253.969V259.049ZM267.969 259.049H279.969V261.574H267.969V259.049ZM281.969 259.049H293.969V261.574H281.969V259.049ZM295.969 259.049H307.969V261.574H295.969V259.049ZM309.969 259.049H321.969V261.574H309.969V259.049ZM323.969 259.049H335.969V261.574H323.969V259.049ZM337.969 259.049H349.969V261.574H337.969V259.049ZM351.969 259.049H363.969V261.574H351.969V259.049ZM365.969 259.049H377.969V261.574H365.969V259.049ZM379.969 259.049H391.969V261.574H379.969V259.049ZM393.969 259.049H405.969V261.574H393.969V259.049ZM407.969 259.049H419.969V261.574H407.969V259.049ZM421.969 259.049H433.969V261.574H421.969V259.049ZM435.865 258.924C439.88 258.188 442.547 255.4 443.875 250.554L445.766 251.382C444.172 257.195 440.969 260.542 436.151 261.423L435.865 258.924ZM444.312 248.331C444.385 247.706 444.422 247.069 444.422 246.424V233.326H446.422V246.424C446.422 247.194 446.38 247.956 446.286 248.712L444.312 248.331ZM444.422 230.801V215.651H446.422V230.801H444.422ZM444.422 213.126V197.976H446.422V213.126H444.422ZM444.422 195.451V180.301H446.422V195.451H444.422ZM444.422 177.776V162.626H446.422V177.776H444.422ZM444.422 160.101V144.951H446.422V160.101H444.422ZM444.422 142.426V127.276H446.422V142.426H444.422ZM444.422 124.751V109.601H446.422V124.751H444.422ZM444.422 107.076V91.9258H446.422V107.076H444.422ZM444.422 89.4008V74.2508H446.422V89.4008H444.422ZM444.422 71.7258V56.5758H446.422V71.7258H444.422ZM444.422 54.0508V38.9008H446.422V54.0508H444.422ZM444.422 36.3758V21.2258H446.422V36.3758H444.422ZM444.422 18.7008V3.55078H446.422V18.7008H444.422ZM444.422 1.02578V0H446.422V1.02578H444.422Z" fill="#007BFF" fill-opacity="0.2"/>
<mask id="mask26_1966_1427" style="mask-type:luminance" maskUnits="userSpaceOnUse" x="132" y="436" width="25" height="17">
<path d="M132.713 436.759H156.713V452.817H132.713V436.759Z" fill="white"/>
</mask>
<g mask="url(#mask26_1966_1427)">
<path d="M151.526 444.196L148.62 438.226C148.62 438.226 147.818 436.766 146.823 436.766H138.839C138.839 436.766 137.375 436.772 136.797 438.259L133.865 444.038C133.37 444.486 132.781 445.176 132.781 445.958V449.22C132.781 450.542 133.51 451.64 134.49 451.922C134.521 449.864 135.849 448.201 137.484 448.201C139.141 448.201 140.484 449.897 140.484 451.988H147.385C147.385 449.897 148.729 448.201 150.385 448.201C152.042 448.201 153.385 449.897 153.385 451.988H154.208C155.427 451.988 156.406 450.752 156.406 449.22C156.406 449.22 156.146 444.196 151.526 444.196ZM141.141 443.565H135.943L138.38 438.581H141.141V443.565ZM144 443.565H142.385V438.581H147.021L149.479 443.565H144Z" fill="#007BFF" fill-opacity="0.2"/>
</g>
<mask id="mask27_1966_1427" style="mask-type:luminance" maskUnits="userSpaceOnUse" x="134" y="447" width="8" height="9">
<path d="M134.666 447.767H141.333V455.697H134.666V447.767Z" fill="white"/>
</mask>
<g mask="url(#mask27_1966_1427)">
<path d="M137.536 448.746C136.12 448.746 134.969 450.2 134.969 451.988C134.969 453.783 136.12 455.23 137.536 455.23C138.953 455.23 140.104 453.783 140.104 451.988C140.104 450.2 138.953 448.746 137.536 448.746ZM137.536 453.468C136.891 453.468 136.365 452.81 136.365 451.988C136.365 451.173 136.891 450.509 137.536 450.509C138.187 450.509 138.708 451.173 138.708 451.988C138.708 452.81 138.187 453.468 137.536 453.468Z" fill="#007BFF" fill-opacity="0.2"/>
</g>
<mask id="mask28_1966_1427" style="mask-type:luminance" maskUnits="userSpaceOnUse" x="146" y="447" width="8" height="9">
<path d="M146.667 447.767H153.334V455.697H146.667V447.767Z" fill="white"/>
</mask>
<g mask="url(#mask28_1966_1427)">
<path d="M150.407 448.746C148.99 448.746 147.839 450.2 147.839 451.988C147.839 453.783 148.99 455.23 150.407 455.23C151.823 455.23 152.974 453.783 152.974 451.988C152.974 450.2 151.823 448.746 150.407 448.746ZM150.407 453.468C149.761 453.468 149.235 452.81 149.235 451.988C149.235 451.173 149.761 450.509 150.407 450.509C151.058 450.509 151.578 451.173 151.578 451.988C151.578 452.81 151.058 453.468 150.407 453.468Z" fill="#007BFF" fill-opacity="0.2"/>
</g>
<mask id="mask29_1966_1427" style="mask-type:luminance" maskUnits="userSpaceOnUse" x="353" y="244" width="10" height="12">
<path d="M353.332 244.083H362.827V255.867H353.332V244.083Z" fill="white"/>
</mask>
<g mask="url(#mask29_1966_1427)">
<path d="M358.833 252.816C359.156 252.678 359.489 252.612 359.827 252.612C360.9 252.612 361.88 253.309 362.437 254.42C362.77 254.394 362.854 254.151 362.322 253.27C361.458 251.856 360.26 251.58 359.416 251.593C359.364 251.415 359.312 251.225 359.255 251.027C358.734 249.226 357.577 248.364 356.89 248.003L356.234 245.576C356.192 245.432 356.109 245.313 355.999 245.247C355.89 245.182 355.765 245.182 355.65 245.234L354.416 245.852C354.541 245.918 354.656 246.023 354.739 246.168C354.854 246.352 354.911 246.582 354.9 246.819L355.546 246.497L357.546 253.874C357.895 253.394 358.333 253.033 358.833 252.816Z" fill="#007BFF" fill-opacity="0.2"/>
</g>
<mask id="mask30_1966_1427" style="mask-type:luminance" maskUnits="userSpaceOnUse" x="340" y="240" width="8" height="11">
<path d="M340.828 240.717H348V250.817H340.828V240.717Z" fill="white"/>
</mask>
<g mask="url(#mask30_1966_1427)">
<path d="M346.922 241.677H341.302C341.042 241.677 340.828 241.94 340.828 242.275V249.265C340.828 249.6 341.042 249.863 341.302 249.863H346.922C347.182 249.863 347.396 249.6 347.396 249.265V242.275C347.396 241.94 347.182 241.677 346.922 241.677Z" fill="#007BFF" fill-opacity="0.2"/>
</g>
<mask id="mask31_1966_1427" style="mask-type:luminance" maskUnits="userSpaceOnUse" x="343" y="252" width="7" height="9">
<path d="M343.998 252.5H349.331V260.029H343.998V252.5Z" fill="white"/>
</mask>
<g mask="url(#mask31_1966_1427)">
<path d="M349.165 255.446C348.692 253.69 347.192 252.756 345.806 253.348C344.415 253.94 343.676 255.84 344.145 257.589C344.613 259.338 346.119 260.279 347.504 259.687C348.889 259.089 349.634 257.195 349.165 255.446ZM346.988 257.767C346.442 258.004 345.848 257.629 345.665 256.938C345.478 256.248 345.77 255.498 346.317 255.268C346.863 255.031 347.462 255.4 347.645 256.09C347.832 256.781 347.54 257.537 346.988 257.767Z" fill="#007BFF" fill-opacity="0.2"/>
</g>
<path d="M357.1 246.102C357.1 247.042 357.704 247.812 358.454 247.812C359.204 247.812 359.204 244.386 358.454 244.386C357.704 244.386 357.1 245.155 357.1 246.102Z" fill="#007BFF" fill-opacity="0.2"/>
<mask id="mask32_1966_1427" style="mask-type:luminance" maskUnits="userSpaceOnUse" x="356" y="252" width="7" height="9">
<path d="M356 252.5H362.667V260.029H356V252.5Z" fill="white"/>
</mask>
<g mask="url(#mask32_1966_1427)">
<path d="M357.316 257.589C357.79 259.338 359.29 260.279 360.681 259.687C362.066 259.089 362.806 257.195 362.337 255.439C361.868 253.69 360.363 252.756 358.977 253.348C357.592 253.94 356.847 255.84 357.316 257.589ZM360.165 257.767C359.618 258.004 359.019 257.629 358.837 256.938C358.649 256.248 358.941 255.498 359.493 255.268C360.04 255.031 360.634 255.4 360.821 256.09C361.004 256.781 360.712 257.537 360.165 257.767Z" fill="#007BFF" fill-opacity="0.2"/>
</g>
<path d="M350.635 252.152V250.915C350.635 250.666 350.473 250.462 350.281 250.462H343.031C342.833 250.462 342.676 250.666 342.676 250.915V252.152C342.676 252.395 342.833 252.599 343.031 252.599H343.067C342.682 253.795 342.088 255.867 342.088 257.274C342.088 257.274 342.692 257.274 343.619 257.274C343.489 256.439 343.572 255.571 343.88 254.788C344.244 253.855 344.88 253.151 345.661 252.816C345.984 252.678 346.317 252.612 346.656 252.612C347.984 252.612 349.161 253.677 349.588 255.262C349.765 255.933 349.791 256.63 349.687 257.274C349.9 257.274 350.109 257.274 350.312 257.274C350.848 257.274 351.348 257.274 351.781 257.274H356.791C356.723 256.827 356.713 256.373 356.77 255.933H351.098C350.609 254.683 350.437 253.408 350.385 252.579C350.525 252.52 350.635 252.349 350.635 252.152Z" fill="#007BFF" fill-opacity="0.2"/>
<path d="M354.004 247.772C353.447 247.68 352.957 247.522 352.515 247.318H350.562C350.562 246.858 350.593 246.391 350.64 245.931C349.463 244.616 349.119 243.09 349.098 242.992C348.984 242.453 349.234 241.9 349.655 241.756C349.723 241.736 349.796 241.723 349.864 241.723C350.218 241.723 350.536 242.025 350.629 242.459C350.64 242.499 350.734 242.9 350.999 243.413C351.004 243.367 351.01 243.327 351.02 243.281C351.239 242.314 350.947 241.151 350.291 240.947C349.629 240.736 348.676 241.19 348.286 242.617C347.76 244.583 347.65 245.865 347.848 248.029C348.067 249.462 348.801 249.719 349.463 249.745C349.499 249.751 349.541 249.751 349.577 249.751H352.166L351.343 253.986C351.218 254.644 351.53 255.301 352.051 255.459C352.124 255.485 352.202 255.498 352.28 255.498C352.713 255.498 353.109 255.124 353.218 254.571L354.338 248.824C354.405 248.463 354.343 248.081 354.161 247.785C354.155 247.779 354.155 247.779 354.15 247.779C354.14 247.779 354.124 247.779 354.109 247.779C354.072 247.779 354.036 247.779 354.004 247.772Z" fill="#007BFF" fill-opacity="0.2"/>
<path d="M354.719 246.878C354.766 246.45 354.527 246.056 354.188 246.003C351.172 245.497 350.49 242.65 350.459 242.518C350.37 242.104 350.032 241.861 349.704 241.972C349.376 242.084 349.178 242.518 349.271 242.932C349.303 243.09 350.162 246.904 354.027 247.549C354.053 247.555 354.084 247.555 354.11 247.555C354.412 247.555 354.678 247.272 354.719 246.878Z" fill="#007BFF" fill-opacity="0.2"/>
<path d="M352.807 239.454L353.421 239.928C353.484 239.77 353.536 239.605 353.567 239.428C353.635 239.073 353.624 238.718 353.557 238.382H352.807V239.454Z" fill="#007BFF" fill-opacity="0.2"/>
<path d="M351.485 241.065C351.725 241.137 351.969 241.137 352.199 241.085L350.24 239.638C350.428 240.329 350.881 240.888 351.485 241.065Z" fill="#007BFF" fill-opacity="0.2"/>
<mask id="mask33_1966_1427" style="mask-type:luminance" maskUnits="userSpaceOnUse" x="349" y="236" width="6" height="7">
<path d="M349.334 236.042H354.667V242.4H349.334V236.042Z" fill="white"/>
</mask>
<g mask="url(#mask33_1966_1427)">
<path d="M351.844 236.061C350.193 236.061 349.875 236.896 349.875 239.125L353.427 241.743L353.714 240.401L352.635 239.573V238.172H354.526C354.526 238.172 353.495 236.061 351.844 236.061Z" fill="#007BFF" fill-opacity="0.2"/>
</g>
<path d="M224.969 1111V1095.85H226.969V1111H224.969ZM224.969 1093.33V1078.18H226.969V1093.33H224.969ZM224.969 1075.65V1060.5H226.969V1075.65H224.969ZM224.969 1057.98V1054.86C224.969 1050.94 223.782 1047.72 221.407 1045.19L222.693 1043.27C225.547 1046.29 226.969 1050.16 226.969 1054.86V1057.98H224.969ZM219.912 1043.88C218.386 1042.78 216.74 1042.23 214.969 1042.23H208.61V1039.71H214.969C217.089 1039.71 219.068 1040.37 220.901 1041.68L219.912 1043.88ZM206.61 1042.23H194.61V1039.71H206.61V1042.23ZM192.61 1042.23H180.61V1039.71H192.61V1042.23ZM178.61 1042.23H166.61V1039.71H178.61V1042.23ZM164.61 1042.23H152.61V1039.71H164.61V1042.23ZM150.61 1042.23H138.61V1039.71H150.61V1042.23ZM136.61 1042.23H124.61V1039.71H136.61V1042.23ZM122.61 1042.23H117.261C114.74 1042.23 112.453 1041.33 110.391 1039.51L111.537 1037.44C113.256 1038.95 115.162 1039.71 117.261 1039.71H122.61V1042.23ZM108.724 1037.73C106.417 1034.78 105.261 1031.23 105.261 1027.08V1022.69H107.261V1027.08C107.261 1030.54 108.224 1033.5 110.146 1035.95L108.724 1037.73ZM105.261 1020.17V1005.02H107.261V1020.17H105.261ZM105.261 1002.49V987.341H107.261V1002.49H105.261ZM105.261 984.816V969.666H107.261V984.816H105.261ZM105.261 967.141V951.991H107.261V967.141H105.261ZM105.261 949.466V934.316H107.261V949.466H105.261ZM105.261 931.791V916.641H107.261V931.791H105.261ZM105.261 914.116V898.966H107.261V914.116H105.261ZM105.261 896.441V881.291H107.261V896.441H105.261ZM105.266 878.707C105.412 872.552 107.693 868.14 112.11 865.49L112.969 867.771C109.292 869.981 107.391 873.65 107.266 878.785L105.266 878.707ZM114.141 864.543C115.162 864.201 116.198 864.03 117.261 864.03H126.417V866.555H117.261C116.375 866.555 115.511 866.693 114.662 866.982L114.141 864.543ZM128.417 864.03H140.417V866.555H128.417V864.03ZM142.417 864.03H154.417V866.555H142.417V864.03ZM156.417 864.03H168.417V866.555H156.417V864.03ZM170.417 864.03H182.417V866.555H170.417V864.03ZM184.417 864.03H196.417V866.555H184.417V864.03ZM198.417 864.03H210.417V866.555H198.417V864.03ZM212.417 864.03H224.417V866.555H212.417V864.03ZM226.417 864.03H230.479C233.016 864.03 235.229 862.965 237.12 860.841L238.448 862.728C236.177 865.279 233.521 866.555 230.479 866.555H226.417V864.03ZM238.365 859.164C239.776 856.882 240.479 854.298 240.479 851.405V845.382H242.479V851.405C242.479 854.877 241.631 857.981 239.943 860.716L238.365 859.164ZM240.479 842.857V827.707H242.479V842.857H240.479ZM240.479 825.182V810.032H242.479V825.182H240.479ZM240.479 807.507V792.357H242.479V807.507H240.479ZM240.479 789.832V774.682H242.479V789.832H240.479ZM240.479 772.157V757.007H242.479V772.157H240.479ZM240.479 754.482V739.332H242.479V754.482H240.479ZM240.479 736.807V724.642H242.479V736.807H240.479Z" fill="#007BFF" fill-opacity="0.2"/>
<mask id="mask34_1966_1427" style="mask-type:luminance" maskUnits="userSpaceOnUse" x="156" y="1004" width="20" height="34">
<path d="M156.495 1004.95H175.495V1037.78H156.495V1004.95Z" fill="white"/>
</mask>
<g mask="url(#mask34_1966_1427)">
<path d="M164.354 1031.48C163.99 1030.13 163.318 1028.95 162.427 1028.08L160.235 1025.93C157.979 1023.72 156.615 1020.37 156.495 1016.77C156.495 1010.25 160.683 1004.96 165.854 1004.96C171.021 1004.96 175.214 1010.25 175.214 1016.77C175.094 1020.37 173.724 1023.72 171.474 1025.93L169.282 1028.08C168.386 1028.95 167.719 1030.13 167.349 1031.48L167.094 1032.44C166.912 1033.11 166.412 1033.55 165.854 1033.55C165.292 1033.55 164.797 1033.11 164.615 1032.44L164.354 1031.48ZM165.854 1037.57C163.787 1037.57 162.11 1037.26 162.11 1036.86C162.11 1036.47 163.787 1036.15 165.854 1036.15C167.922 1036.15 169.599 1036.47 169.599 1036.86C169.599 1037.26 167.922 1037.57 165.854 1037.57ZM165.854 1025.99C169.99 1025.99 173.339 1021.76 173.339 1016.54C173.339 1011.32 169.99 1007.09 165.854 1007.09C161.719 1007.09 158.365 1011.32 158.365 1016.54C158.365 1021.76 161.719 1025.99 165.854 1025.99ZM160.985 1020.07L161 1013.7L165.396 1016.9V1023.28L160.985 1020.07ZM166.344 1016.9L170.703 1013.7L170.719 1020.07L166.344 1023.29V1016.9ZM161.474 1012.65L165.839 1009.45L170.235 1012.65L165.87 1015.85L161.474 1012.65Z" fill="#007BFF" fill-opacity="0.2"/>
</g>
<path d="M1204.47 812.794L1202.27 810.012C1201.96 809.624 1201.54 809.407 1201.1 809.407H1197V821.204H1198.27C1198.27 819.284 1199.51 817.738 1201.02 817.738C1202.54 817.738 1203.76 819.29 1203.76 821.204H1204.26C1204.69 821.204 1205.04 820.763 1205.04 820.224V814.549C1205.05 813.892 1204.83 813.26 1204.47 812.794ZM1197.79 813.497V810.4H1201.11C1201.33 810.4 1201.55 810.512 1201.71 810.716L1203.91 813.497H1197.79Z" fill="#007BFF" fill-opacity="0.2"/>
<mask id="mask35_1966_1427" style="mask-type:luminance" maskUnits="userSpaceOnUse" x="1198" y="818" width="6" height="7">
<path d="M1198.67 818.1H1204V824.413H1198.67V818.1Z" fill="white"/>
</mask>
<g mask="url(#mask35_1966_1427)">
<path d="M1201.02 818.449C1199.82 818.449 1198.84 819.678 1198.84 821.204C1198.84 822.729 1199.82 823.959 1201.02 823.959C1202.23 823.959 1203.2 822.729 1203.2 821.204C1203.2 819.678 1202.23 818.449 1201.02 818.449ZM1201.02 822.624C1200.4 822.624 1199.9 821.986 1199.9 821.204C1199.9 820.415 1200.41 819.784 1201.02 819.784C1201.65 819.784 1202.15 820.421 1202.15 821.204C1202.15 821.993 1201.65 822.624 1201.02 822.624Z" fill="#007BFF" fill-opacity="0.2"/>
</g>
<mask id="mask36_1966_1427" style="mask-type:luminance" maskUnits="userSpaceOnUse" x="1182" y="818" width="7" height="7">
<path d="M1182.67 818.1H1188V824.413H1182.67V818.1Z" fill="white"/>
</mask>
<g mask="url(#mask36_1966_1427)">
<path d="M1185.41 818.449C1184.2 818.449 1183.23 819.678 1183.23 821.204C1183.23 822.729 1184.2 823.959 1185.41 823.959C1186.61 823.959 1187.59 822.729 1187.59 821.204C1187.59 819.678 1186.61 818.449 1185.41 818.449ZM1185.41 822.624C1184.79 822.624 1184.29 821.986 1184.29 821.204C1184.29 820.415 1184.79 819.784 1185.41 819.784C1186.03 819.784 1186.54 820.421 1186.54 821.204C1186.54 821.993 1186.04 822.624 1185.41 822.624Z" fill="#007BFF" fill-opacity="0.2"/>
</g>
<mask id="mask37_1966_1427" style="mask-type:luminance" maskUnits="userSpaceOnUse" x="1179" y="805" width="19" height="17">
<path d="M1179.47 805.475H1197.33V821.467H1179.47V805.475Z" fill="white"/>
</mask>
<g mask="url(#mask37_1966_1427)">
<path d="M1195.66 805.475H1180.26C1179.84 805.475 1179.49 805.915 1179.49 806.455V820.217C1179.49 820.756 1179.84 821.197 1180.26 821.197H1182.67C1182.67 819.277 1183.9 817.732 1185.41 817.732C1186.92 817.732 1188.16 819.283 1188.16 821.197H1196.43V806.455C1196.44 805.915 1196.09 805.475 1195.66 805.475Z" fill="#007BFF" fill-opacity="0.2"/>
</g>
</g>
</g>
<defs>
<clipPath id="clip0_1966_1427">
<rect width="1440" height="4215" fill="white"/>
</clipPath>
<clipPath id="clip1_1966_1427">
<rect width="1440" height="1111" fill="white"/>
</clipPath>
</defs>
</svg>
