<svg width="57" height="13" viewBox="0 0 57 13" fill="none" xmlns="http://www.w3.org/2000/svg">
<path d="M1.5 1.5C3.64541 1.60614 22.5255 1.62868 24.6551 1.77408C25.8783 1.8576 38.6006 1.94908 39.8185 2.0619C41.4193 2.21019 46.0304 2.43845 47.628 2.89742C48.9448 3.2757 49.3397 3.57868 47.8586 4.17444C46.8991 4.56037 41.8335 4.82089 40.7778 5.07143C37.8631 5.76316 14.1462 6.4667 11.1761 6.99396C9.98012 7.20628 8.76958 7.38512 7.58816 7.63108C7.12828 7.72682 5.00608 8.74526 5.26363 9.0167C5.60609 9.37763 7.51975 10.1968 8.15821 10.2319C10.9591 10.3858 25.3423 10.4873 27.4898 10.5365C33.1465 10.6659 49.8105 10.5365 55.5 10.5" stroke="#007BFF" stroke-width="3" stroke-linecap="round"/>
</svg>
